<?xml version="1.0" standalone="no"?>
<!DOCTYPE svg PUBLIC "-//W3C//DTD SVG 1.1//EN" "http://www.w3.org/Graphics/SVG/1.1/DTD/svg11.dtd" >
<!--
2013-9-30: Created.
-->
<svg>
<metadata>
Created by iconfont
</metadata>
<defs>

<font id="iconfont" horiz-adv-x="1024" >
  <font-face
    font-family="iconfont"
    font-weight="500"
    font-stretch="normal"
    units-per-em="1024"
    ascent="896"
    descent="-128"
  />
    <missing-glyph />
    
    <glyph glyph-name="x" unicode="x" horiz-adv-x="1001"
d="M281 543q-27 -1 -53 -1h-83q-18 0 -36.5 -6t-32.5 -18.5t-23 -32t-9 -45.5v-76h912v41q0 16 -0.5 30t-0.5 18q0 13 -5 29t-17 29.5t-31.5 22.5t-49.5 9h-133v-97h-438v97zM955 310v-52q0 -23 0.5 -52t0.5 -58t-10.5 -47.5t-26 -30t-33 -16t-31.5 -4.5q-14 -1 -29.5 -0.5
t-29.5 0.5h-32l-45 128h-439l-44 -128h-29h-34q-20 0 -45 1q-25 0 -41 9.5t-25.5 23t-13.5 29.5t-4 30v167h911zM163 247q-12 0 -21 -8.5t-9 -21.5t9 -21.5t21 -8.5q13 0 22 8.5t9 21.5t-9 21.5t-22 8.5zM316 123q-8 -26 -14 -48q-5 -19 -10.5 -37t-7.5 -25t-3 -15t1 -14.5
t9.5 -10.5t21.5 -4h37h67h81h80h64h36q23 0 34 12t2 38q-5 13 -9.5 30.5t-9.5 34.5q-5 19 -11 39h-368zM336 498v228q0 11 2.5 23t10 21.5t20.5 15.5t34 6h188q31 0 51.5 -14.5t20.5 -52.5v-227h-327z" />
    

    
    <glyph glyph-name="zhuanfa" unicode="&#58880;" d="M874.74280533 86.37381865999998c0 0 0-57.713712-57.716064-57.71371201h-692.58122576c0 0-57.712704 0-57.712704 57.71371201v461.69816865c0 57.71483201 57.712704 57.71483201 57.712704 57.71483199h173.14586609l57.717184 57.71035201H66.73290752c-32.747008 0-57.717184-25.69772801-57.71718399-57.71035201l-0.16788801-577.012464c0-32.013632 26.542768-58.050608 59.289776-58.05060799l806.604064 0.22052799c32.685408 0 57.712704 25.70220799 57.71270399 57.71483201V432.6480436l-57.71270399-57.71147199V86.37385751zM983.52078933 607.87191466l-291.227328 225.099504c-5.35136 4.11432-12.453168 4.790352-18.48168 1.91385601-5.974752-2.925664-9.81164801-8.958432-9.81164799-15.60899201v-134.81147782c-110.52843199-3.32752-199.012576-45.42888-263.15441601-111.48199999-114.35536001-117.510288-103.138896-289.464896-102.86024-296.67724801 0.28201601-9.244928 7.77795199-16.56816 17.08033601-16.79753599h0.38951188c9.130016 0 16.7412 6.990816 17.474352 16.064496 0.676032 9.412816 14.87976 227.13208 331.07166399 234.85257599v-141.40940443c0-6.59455999 3.836896-12.683216 9.81164801-15.60899199 6.028512-2.93350399 13.18744001-2.200464 18.48168 1.91385599l291.227328 225.099504c4.224192 3.2704 6.760544 8.343888 6.760544 13.752144C990.28122134 599.47650666 987.74610134 604.54450666 983.52078933 607.87191466zM699.00248534 404.58194666V528.0622327799999c0 9.580704-7.8316 17.41992-17.52688001 17.41992-186.33776 0-277.41750401-68.4796-328.367424-136.110912 14.203728 46.26943999 31.787728 97.22283199 72.93272 139.487712 60.64744 62.389824 146.656832 101.111136 255.434704 101.11113601 9.69528 0 17.52688001 7.777616 17.52688001 17.35832V783.65885829l245.23015999-189.48641602L699.00248534 404.58194666z"  horiz-adv-x="1000" />

    
    <glyph glyph-name="tupian" unicode="&#58911;" d="M1009.89508267 2.355882670000028c0-31.5490304-25.575424-57.12226987-57.12554667-57.12226986L73.0568704-54.766387190000046c-31.5490304 0-57.1244544 25.57323947-57.1244544 57.12226986L15.932416 779.24802561c0 31.5490304 25.575424 57.1244544 57.1244544 57.1244544l879.7126656 0c31.55012267 0 57.12554667-25.575424 57.12554667-57.1244544L1009.89508267 2.355882670000028zM966.204416 752.35642027c0 23.84308907-19.32765867 43.17074773-43.17074773 43.17074774L102.7938304 795.52716801c-23.8419968 0-43.17074773-19.32765867-43.17074773-43.17074774l0-723.10565546c0-23.8419968 19.32875093-43.16965547 43.17074773-43.16965547L923.032576-13.918890659999988c23.84308907 0 43.17074773 19.32765867 43.17074773 43.16965547L966.204416 752.35642027 966.204416 752.35642027zM264.7857152 684.41524907c-52.78378667 0-95.57333333-42.78954667-95.57333333-95.57333333 0-52.78378667 42.78954667-95.57333333 95.57333333-95.57333333s95.57333333 42.78954667 95.57333333 95.57333333C360.35904853 641.62570241 317.56950187 684.41524907 264.7857152 684.41524907zM316.66838187 588.84191574c0-28.65452373-23.23032747-51.88266667-51.88266667-51.88266667-28.65452373 0-51.88266667 23.22814293-51.88266667 51.88266667 0 28.65452373 23.22814293 51.88266667 51.88266667 51.88266667C293.43914667 640.72458241 316.66838187 617.49643947 316.66838187 588.84191574zM128.43588267 174.02743467000005l184.04693333 138.71786667 99.9424-102.67306667 247.94453333 248.76373334 232.6528-233.472 29.4912 32.768-261.59786666 262.41706666-248.49066667-246.03306666-96.11946667 96.11946666-212.992-160.5632L128.43588267 174.02743467000005zM908.05650773 190.41143466999995L561.48575573 190.41143466999995l0-43.69066666 346.570752 0L908.05650773 190.41143466999995zM908.05650773 90.65035093999995L363.43924053 90.65035093999995l0-43.69066667 544.61617494 0L908.05650773 90.65035093999995 908.05650773 90.65035093999995z"  horiz-adv-x="1024" />

    
    <glyph glyph-name="icon" unicode="&#58899;" d="M509.88773264-117.21832319999999c-133.76625919 0-259.53845008 52.09267056-354.0953808 146.61178112C61.1987456 124.0397848 9.13243424 249.79936783000005 9.15650304 383.61261775c0 133.79834945 52.10298576 259.58314704 146.71149136 354.18133858 94.57068432 94.56495329 220.33026736 146.65877071 354.10684176 146.65877071 133.82356399 0 259.57168608-52.09381744 354.19050688-146.65074816 195.25697408-195.33261665 195.23290529-513.06215072 0-708.30995647C769.52360031-65.08668448000003 643.71129664-117.21832319999999 509.88773264-117.21832319999999L509.88773264-117.21832319999999 509.88773264-117.21832319999999zM509.97483616 819.17643343c-116.35695456 0-225.71351376-45.28825728-307.9716136-127.53145886-82.27185343-82.23403216-127.58417952-191.65133344-127.58417951-308.03235682-0.0137536-116.39477696 45.2641896-225.79832464 127.50853694-308.06100975C284.17651152-6.65377232000003 393.56515984-51.99360449000005 509.88773264-51.99360449000005c116.39477696 0 225.82124656 45.36275407 308.11831457 127.64492273 169.80775841 169.79056639 169.80775841 446.14234672 0 615.98907216C735.72387855 773.88932191 626.34554432 819.17643343 509.97483616 819.17643343L509.97483616 819.17643343 509.97483616 819.17643343zM332.00682495 246.92723423999996c0 0 58.67703184-93.79935713 177.86829985-93.79935712s197.35205056 93.79935713 197.35205056 93.79935712 44.30146336 0.14784672 44.29114816-46.89738592c0 0-76.82901072-109.43105488-241.64434449-109.43105488-164.83137888 0-218.46785072 109.43105488-218.46785071 109.43105488s-1.624028 46.89738592 40.60413504 46.89738592L332.00682495 246.92723423999996zM364.34870432 544.65727216c-33.7745072 0-61.3348456-27.4686496-61.3348456-61.34286816 0-33.82837472 27.55919153-61.30619264 61.3348456-61.30619264 33.92693921 0 61.3348456 27.47781792 61.3348456 61.30619264C425.68240304 517.18862256 398.27564353 544.65727216 364.34870432 544.65727216L364.34870432 544.65727216 364.34870432 544.65727216zM678.59637792 544.65727216c-33.82379057 0-61.29129328-27.4686496-61.29129328-61.34286816 0-33.82837472 27.4686496-61.30619264 61.29129328-61.30619264 33.88911792 0 61.34286816 27.47781792 61.34286816 61.30619264C739.93924496 517.18862256 712.48549584 544.65727216 678.59637792 544.65727216L678.59637792 544.65727216 678.59637792 544.65727216zM678.59637792 544.65727216"  horiz-adv-x="1024" />

    
    <glyph glyph-name="weizhi" unicode="&#58932;" d="M830.42738227 501.3193563c0-94.81947208-318.42909881-536.14426297-318.42909881-536.14426297s-318.42909881 444.05860411-318.42909882 536.14426297c0 175.86688978 142.55305374 318.42909881 318.42909882 318.42909881C687.85945216 819.74845511 830.42738227 677.1862460899999 830.42738227 501.3193563zM126.53298587 501.3193563c0-109.63172408 358.46131589-620.10629929 358.4613159-620.10629928l54.01025134 0c0 0 358.46017191 514.50034013 358.46017191 620.10629928 0 212.88836617-172.56892122 385.46644156-385.46644156 385.46644156C299.10305109 886.78579786 126.53298587 714.20772247 126.53298587 501.3193563zM411.44341275 501.3193563c0 55.53221458 45.02494521 100.55715979 100.55601581 100.5571598 55.53221458 0 100.55715979-45.02494521 100.55715979-100.5571598s-45.02494521-100.56402598-100.55715979-100.56402597C456.46835686 400.75533033 411.44341275 445.7882857 411.44341275 501.3193563zM344.40606889 501.3193563c0-92.56170115 75.02479121-167.60251385 167.59335855-167.60251385 92.55369098 0 167.59450367 75.04081157 167.59450367 167.60251385s-75.04081157 167.59450367-167.59450367 167.59450367C419.42971611 668.91385997 344.40606889 593.88105858 344.40606889 501.3193563z"  horiz-adv-x="1024" />

    
    <glyph glyph-name="iconfont" unicode="&#58881;" d="M969.7200551-74.34725686000002c0-22.8387306-18.5008551-41.3395857-41.32104795-41.33958569-22.8387306 0-41.3395857 18.5008551-41.3395857 41.33958569l-0.37075815 3.83735206c0 1.63133775 0.29660715 3.20706225 0.46344795 4.81986225-25.8048 181.4307306-181.3565796 314.7555306-370.7586204 316.85031733-1.5201102-0.0370755-2.9660694-0.24099285-4.50471735-0.24099284-1.50157245 0-2.9475306 0.20391735-4.44910305 0.24099284-187.23310305-2.07624795-341.30184795-132.45351735-369.70195815-310.73279999 0.9454347-3.5036694 1.6128-7.1185653 1.6128-10.91884185l0.38929695-3.89296529c0-23.19095205-18.79746225-41.9884143-41.9698755-41.98841431s-41.9884143 18.79746225-41.9884143 41.98841431l-0.0370755 0.37075814L54.9473102-74.01357421c0.11122755 1.22350305 0.3522204 2.39139285 0.4819857 3.59635816 0 3.46659285 0.55613775 6.74780715 1.3347306 9.97340715 21.52253775 167.26775205 133.6028694 302.50195815 286.15150305 360.74813774-88.81522755 56.91144795-146.7277245 157.4611857-146.7277245 272.34074491 0 177.6860694 138.05197245 321.72579285 315.73804185 321.72579284 177.6675306 0 315.73804185-144.0397245 315.73804185-321.72579284 0-114.84248265-57.85688265-215.37368265-146.6350347-272.28513061 151.49197245-57.7827306 263.0717796-191.4412143 285.79928265-357.04055204 1.53864795-4.3378755 2.5582347-8.9538204 2.5582347-13.82929696L969.7200551-74.34725686000002zM755.06935205 572.552385c0 134.3443857-108.89180715 243.23619285-243.23619285 243.23619285s-243.23619285-108.9103449-243.23619285-243.23619285c0-134.32584795 108.9103449-243.2176551 243.23619285-243.21765511S755.06935205 438.22653703 755.06935205 572.552385z"  horiz-adv-x="1024" />

    
    <glyph glyph-name="yinle" unicode="&#59061;" d="M1017.19344427 770.00856213c0 63.00728213-51.2580896 114.2675552-114.26537174 114.2675552l-2.87289813 0-544.18714133-98.9436128c-61.5762912-1.65257173-111.166528-52.25683627-111.166528-114.2260768l0-521.7104256c-23.7538016 16.42856747-52.5319008 26.0842112-83.53562347 26.0842112-81.18556587 0-147.23493333-66.047184-147.23493333-147.23493333s66.0493664-147.23493333 147.23493333-147.23493333 147.23493333 66.047184 147.23493333 147.23493333c0 7.6985376 0 631.94478933 0 631.94478933 0 41.98993707 53.43896 61.48351147 53.43896 61.48351147l543.61627307 98.83991787c26.7140224-1.32183893 48.0391776-23.46891413 48.0391776-50.50602774l0-505.22728213c-23.7527104 16.42856747-52.5319008 26.0842112-83.53562347 26.0842112-81.18665813 0-147.23493333-66.047184-147.23493333-147.23493333s66.047184-147.23493333 147.23493333-147.23493334S1017.19344427 62.44390080000005 1017.19344427 143.63055893C1017.19344427 151.33018773000003 1017.19344427 770.00856213 1017.19344427 770.00856213zM161.16588267-55.290342399999986c-46.06242347 0-83.53562347 37.47538347-83.53562347 83.53562347 0 46.06024 37.4732 83.53562347 83.53562347 83.53562346s83.53562347-37.47538347 83.53562346-83.53562346C244.70150613-17.81495892999999 207.22830613-55.290342399999986 161.16588267-55.290342399999986zM869.9596032 60.094935469999996c-46.06024 0-83.53562347 37.47538347-83.53562347 83.53562346 0 46.06024 37.47538347 83.53562347 83.53562347 83.53562347s83.53562347-37.47538347 83.53562347-83.53562347C953.4941344 97.57031892999998 916.018752 60.094935469999996 869.9596032 60.094935469999996z"  horiz-adv-x="1024" />

    
    <glyph glyph-name="shezhi" unicode="&#58900;" d="M512.00114576 551.8364609600001c-91.92662528 0-166.44738432-75.14309376-166.44738432-167.84104513 0-92.68534464 74.52075904-167.825 166.44738432-167.82499999 91.92433264 0 166.44623856 75.14080112 166.44623856 167.82499999C678.44738432 476.6933672 603.9254784 551.8364609600001 512.00114576 551.8364609600001zM512.00114576 283.30339504000005c-55.15620432 0-99.86911872 45.08081312-99.86911872 100.69087392 0 55.61808336 44.7129144 100.70462752 99.86911872 100.70462752 55.15276592 0 99.86568032-45.08654416 99.86568031-100.70462752C611.86682607 328.38420815999996 567.15391167 283.30339504000005 512.00114576 283.30339504000005zM982.18873216 265.31072496l-77.95562992 45.38453024c4.37009105 23.83091872 7.23764048 48.18102127 7.23764048 73.30015952 0 25.12486816-2.86869521 49.47382608-7.23993199 73.30818207l77.95677567 45.38796865c31.84332368 18.53592271 42.75422368 59.59620688 24.3695872 91.70084224l-66.5782656 116.28016624c-18.38463761 32.11265792-59.10452912 43.11295409-90.95014544 24.57473984l-78.75790161-45.84755616c-36.79792704 31.58659728-78.6261 57.39568913-125.11547327 73.99240576l0 56.97277712c0 37.07757648-29.80899151 67.13756448-66.57941248 67.13756448L445.42058752 887.50250608c-36.76927408 0-66.5782656-30.059988-66.5782656-67.13756447l0-56.97277713c-46.49052017-16.59671664-88.31869312-42.40695535-125.11662015-73.99240576l-78.75790161 45.84755617c-31.84561632 18.53821536-72.5632152 7.5379192-90.94670704-24.57473985L17.44168064 594.39126304c-18.38463761-32.10463536-7.47488336-73.16491952 24.3695872-91.70084224l77.95677568-45.38453023c-4.37009105-23.83664864-7.23764048-48.18560544-7.23764048-73.31047474 0-25.11913824 2.86754944-49.47153343 7.23764048-73.30015951l-77.95677568-45.38453024c-31.84332368-18.53592271-42.75422368-59.59620688-24.3695872-91.70313489l66.58055825-116.28016623c18.38349072-32.10463536 59.10223648-43.10722416 90.94670703-24.57130144l78.75561008 45.85328608c36.79792704-31.58659728 78.6261-57.39798175 125.11776592-73.99584416l0-56.97736128c0-37.07413808 29.80784576-67.13412608 66.5782656-67.13412608l133.15882384 0c36.76927408 0 66.57941248 30.059988 66.57941249 67.13412608L645.15882385 4.612419670000008c46.49052017 16.59671664 88.31869312 42.40924688 125.11662015 73.99584418l78.75561008-45.85328609c31.84561632-18.53592271 72.56550784-7.53333504 90.95014544 24.57130145l66.5782656 116.28016623C1024.94295584 205.71337231999996 1014.03320271 246.77480223999999 982.18873216 265.31072496zM932.25531856 178.10260590999997l-33.28970624-58.13607182c-9.19289167-16.05804816-29.55341088-21.55934256-45.47507215-12.28622305l-92.48936145 53.84391601c-46.9489608-53.39693632-110.39492801-91.70084225-182.42291312-106.44660321l0-73.87894191c0-18.53592271-14.902776-33.5647704-33.28970624-33.56477041l-66.57941248 0c-18.38578336 0-33.28970623 15.02884768-33.28970623 33.56477041l0 73.87894191c-72.02798512 14.74576096-135.47280656 53.04966689-182.42291313 106.44660321l-92.48936144-53.84391601c-15.9216624-9.27311839-36.28103472-3.77182512-45.47507215 12.28622305l-33.2885605 58.13607182c-9.19403744 16.05460975-3.73629535 36.58246032 12.18422016 45.84984768l92.86299121 54.06282225c-11.06333201 33.39285487-17.68551456 68.83265088-17.68551457 105.97784737 0 37.15092641 6.6244752 72.5941608 17.68666032 105.98930831l-92.86413696 54.0605296c-15.92051551 9.26738849-21.37825872 29.80096896-12.18422016 45.84984768l33.2885605 58.14180177c9.19403744 16.05231824 29.55341088 21.55590416 45.47507215 12.28851567l92.49279984-53.84850016c46.9489608 53.39922784 110.39263536 91.70657328 182.41947473 106.45233313l0 73.87321087c0 18.53821536 14.902776 33.56247888 33.28970623 33.56247888l66.57941248 0c18.38578336 0 33.28970623-15.02311776 33.28970624-33.56247888l0-73.87321087c72.02683937-14.74576096 135.47165969-53.05310528 182.41947473-106.45233313l92.49279984 53.84850016c15.9216624 9.26738849 36.28218048 3.76380256 45.47507215-12.28851567l33.28970624-58.14180177c9.19289167-16.0500256 3.73629535-36.58246032-12.18422016-45.84984768l-92.86413696-54.06282224c11.06333201-33.39514752 17.68551456-68.8349424 17.68551455-105.98586992 0-37.14634224-6.62218256-72.58613712-17.68551455-105.97784736l92.86413696-54.06282224C935.99161503 214.68506623999997 941.44821024 194.15836255 932.25531856 178.10260590999997z"  horiz-adv-x="1024" />

    
    <glyph glyph-name="shuaxin" unicode="&#58886;" d="M566.47886855-97.30418640000005l0 81.4405967c13.11620983 0 105.15338496 0.65934298 117.93992399 1.94270609 200.05163703 20.12172539 356.38649818 193.88207319 356.3864982 405.23672648 0 224.88295299-176.96286888 407.17943257-395.26416818 407.17943259-218.30130068 0-395.26416817-182.29647958-395.26416815-407.17943259l-79.05047926 0c0 269.85954388 212.36721659 488.62002928 474.32642218 488.62002928 261.95920559 0 474.32642217-218.7604854 474.32642216-488.62002928 0-254.94191525-189.52570153-464.2832195-431.36318032-486.64200032C674.35204318-96.63307006000002 580.9608606-97.30418640000005 566.47886855-97.30418640000005zM566.47886855-15.863591120000024c21.82895314 0 39.52523962-18.22611554 39.52523963-40.71441166 0-22.48829475-17.69628646-40.71441166-39.52523963-40.71441167-21.82895314 0-39.52523962 18.2378903-39.52523961 40.71441167C526.95363035-34.08970664000003 544.64991681-15.863591120000024 566.47886855-15.863591120000024zM13.11374332 391.31584287l395.26416818 0-197.63797146-244.31001393L13.11374332 391.31584287z"  horiz-adv-x="1134" />

    
    <glyph glyph-name="jinlingyingcaiwangtubiao55" unicode="&#59226;" d="M834.8913092 327.95636776000003L834.8913092 753.36806296c0 44.44053015-36.15548522 80.56783496-80.56783497 80.56783496L87.63098053 833.93589792c-44.41234974 0-80.56783496-36.1273048-80.56783496-80.56783496l0-425.4116952c0-44.41234974 36.15548522-80.53965453 80.56783496-80.53965453l102.80219025 0 2.1417123-215.10118371 220.54000574 215.10118371L754.35165465 247.41671323000003C798.7640044 247.41671323000003 834.8913092 283.54401802999996 834.8913092 327.95636776000003zM395.92482959 289.68735067l-162.03744352-158.06400361-1.5781038 158.06400361L87.63098053 289.68735067c-21.13531873 0-38.29719752 17.1618788-38.29719752 38.26901709L49.33378301 753.36806296c0 21.13531873 17.1618788 38.29719752 38.29719752 38.29719752L754.35165465 791.66526048c21.13531873 0 38.29719752-17.1618788 38.29719753-38.29719752l0-425.4116952c0-21.1071383-17.1618788-38.26901709-38.29719753-38.26901709L395.92482959 289.68735067zM936.36901947 660.2317584699999l-65.68857059 0 0-42.27063744 65.68857059 0c21.13531873 0 38.29719752-17.1618788 38.29719752-38.29719752l0-351.94532732c0-21.13531873-17.1618788-38.29719752-38.29719752-38.29719752l-157.3876734 0 0-145.6364362-138.84495378 145.6364362-209.60600084 0 0-42.27063744 191.4859876 0 199.20742403-208.98603151 0 208.98603151 115.11703597 0c44.41234974 0 80.56783496 36.1273048 80.56783496 80.56783496L1016.90867401 579.66392351C1016.93685443 624.10445368 980.78136921 660.2317584699999 936.36901947 660.2317584699999z"  horiz-adv-x="1024" />

    
    <glyph glyph-name="duihaocuohao54" unicode="&#58901;" d="M6.49898667 246.15594667000005c0 0 158.26944-56.74325333 254.06122666-162.85696s179.24096-198.57408 179.24096-198.57408 72.19882667 154.33728 263.07242667 361.43104 314.68202667 263.07242667 314.68202667 263.07242666-15.12789333 86.12522667-17.42165334 158.9248c-3.60448 115.07029333 1.91146667 215.06730667 1.91146667 215.06730667s-151.33354667-28.34432-345.59317333-317.24885333-232.10666667-412.65834667-232.10666667-412.65834667l-139.264 283.71626667L6.49898667 246.15594667000005z"  horiz-adv-x="1024" />

    
    <glyph glyph-name="ico2" unicode="&#58987;" d="M511.79465387 882.0736C235.61939627 882.0736 11.74186667 658.1960704 11.74186667 382.02081280000004c0-276.168704 223.8775296-500.0527872 500.0527872-500.0527872 276.168704 0 500.0527872 223.8840832 500.0527872 500.0527872C1011.8496256 658.1960704 787.96335787 882.0736 511.79465387 882.0736L511.79465387 882.0736zM511.79465387-61.64480000000003c-245.02818133 0-443.6656128 198.63743147-443.6656128 443.6656128 0 245.02818133 198.63743147 443.6656128 443.6656128 443.6656128S955.46026667 627.04899413 955.46026667 382.02081280000004C955.46026667 136.99263147 756.8228352-61.64480000000003 511.79465387-61.64480000000003L511.79465387-61.64480000000003zM511.79465387-61.64480000000003"  horiz-adv-x="1024" />

    
    <glyph glyph-name="zan" unicode="&#58902;" d="M934.19466411 736.0937631300001c-53.67855218 51.51180345-125.04270962 79.89027385-200.9476096 79.89027385s-136.74618083-26.16980707-190.42822486-77.67928149c-0.02095673-0.03842162-0.06054343-0.07800718-0.07800718-0.11875784-0.02212181 0-0.02212181 0-0.03958556 0L512.20957298 701.32099641l-30.51029049 34.65633678c-0.02212181 0.03958557-0.06170738 0.07917227-0.08033622 0.07917227-0.02212181 0-0.02212181 0-0.02212181 0.03842161-53.67971613 51.51180345-114.52216093 79.89027385-190.42706091 79.89027386-75.92236487 0-147.28652231-28.37963549-200.96740352-79.89027386-53.66225123-51.54789603-83.22480811-120.06885149-83.2248081-192.93494726 0-72.82301725 29.52297017-141.30555107 83.14563584-192.81618944l377.24481422-365.18507066c11.86181461-11.4857472 28.0058971-17.96037973 44.83924196-17.96037973 16.83334371 0 32.97742734 6.47463139 44.8404059 17.96037973l377.22269241 365.14548509c53.64362354 51.51063837 83.16775765 120.0327589 83.16775765 192.85577614C1017.44042894 616.0249116499999 987.87670813 684.54586709 934.19466411 736.0937631300001z"  horiz-adv-x="1024" />

    
    <glyph glyph-name="laba" unicode="&#58968;" d="M512.80914736 875.9212984L266.68173968 629.68501216 92.23605231 629.68501216c-45.32942736 0-82.0894592-36.76117872-82.08945919-82.0894592l0-328.32803808c0-45.36610176 36.76003184-82.0894592 82.08945919-82.0894592L266.67715551 137.17805568000006l246.1331376-246.30619889c45.32255057 0 82.05163792 36.76003184 82.05163793 82.08945922L594.86193104 793.83184032C594.86078528 839.1612665600001 558.13742785 875.9212984 512.80914736 875.9212984L512.80914736 875.9212984zM512.80914736-24.19406207999998L297.42359824 213.43959377 92.23605231 213.43959377 92.23605231 541.76075504l205.18754593 0 215.38554912 237.66918448 0-803.62858576L512.80914736-24.19406207999998zM999.28532161 347.39469168000005c8.10293119 0 14.65633568 16.12678255 14.65633567 36.004752 0 19.87223952-6.55340335 36.004752-14.65633567 36.004752l-102.64477441 0c-8.10866225 0-14.6620656-16.12678255-14.6620656-36.004752 0-19.87796945 6.55340335-36.004752 14.6620656-36.004752L999.28532161 347.39469168000005 999.28532161 347.39469168000005zM1010.4093744 812.7046792c7.02330496 4.0514656 4.63368528 21.29913408-5.3053 38.51127392-9.93325424 17.21099297-23.67614704 27.90182081-30.699452 23.85035408l-88.8915664-51.3223872c-7.01986656-4.0514656-4.62795424-21.29913408 5.3053-38.51127392 9.9378384-17.21099297 23.67958543-27.90182081 30.70289041-23.84920832L1010.4093744 812.7046792 1010.4093744 812.7046792zM1010.4093744-45.90579294999998c7.02330496-4.05719664 4.63368528-21.29913408-5.3053-38.51127393-9.93325424-17.21099297-23.67614704-27.90640496-30.699452-23.84920832l-88.8915664 51.3155104c-7.01986656 4.05719664-4.62795424 21.30028096 5.3053 38.51127392 9.9378384 17.21099297 23.67958543 27.90755071 30.70289041 23.85035408L1010.4093744-45.90579294999998 1010.4093744-45.90579294999998zM652.6196736 198.96663456c-7.32014528 19.70261664-5.29956896 38.38978752 14.40304656 45.7099328 49.75566736 22.96671104 73.50516544 67.66119808 79.57835312 123.72156496 7.08175552 65.40796416-24.22054544 125.51406672-78.25460609 150.27327952-17.67745616 11.36702671-24.99187039 31.06505808-13.62599055 48.74251424 11.37275664 17.67057936 31.07078912 24.99187039 48.74022272 13.6248448 80.04366943-46.48240464 128.00568928-127.30313009 117.8879128-220.73898561-8.10407808-74.74753888-53.57103696-145.44934096-123.02473568-175.73619727-16.23222384-9.18714272-37.99209008-3.15750737-45.70534752 14.39731664L652.61852672 198.96663456zM652.6196736 198.96663456"  horiz-adv-x="1024" />

    
    <glyph glyph-name="liaotian" unicode="&#58963;" d="M888.55560243 598.0068955500001c8.93352583-30.12286172 13.67844716-61.61669292 13.67844715-94.03331442 0-216.17809631-210.76871697-391.42418525-470.76614589-391.42418526-54.34731511 0-106.5366449 7.6718976-155.10690715 21.76007287l73.826846 45.45223913c24.65100286-4.02879802 49.98809105-6.38383614 75.99083726-6.38383614 227.86196939 0 412.58228198 161.64093673 412.58228198 361.00934614 0 199.38042485-184.71911023 361.00934614-412.58228198 361.00934614S13.59760019 733.76884508 13.59760019 534.38841907c0-115.50141109 62.23429041-218.0681351 158.68512366-284.16660993l0-179.98860789 92.98436151 57.24785697c75.26630328-87.74920764 195.13775149-144.52365345 330.17636823-144.52365344 26.00514978 0 51.34103678 2.35503811 75.99083726 6.39465037l177.90632106-109.54052087L849.34061074 59.789327920000005c96.44963205 66.10928906 158.68392129 168.66519884 158.68392128 284.17742417C1008.02453202 443.03696523 962.40287454 532.7759386600001 888.55560243 598.0068955500001zM632.47042197 578.0263178800001c26.29832835 0 47.60421497-21.32270915 47.60421497-47.5946031 0-26.29232005-21.30588779-47.61623039-47.60421497-47.61623038s-47.60661851 21.32391035-47.60661852 47.61623038C584.86260227 556.7036087399999 606.17209362 578.0263178800001 632.47042197 578.0263178800001zM442.04755264 578.0263178800001c26.29832835 0 47.60421497-21.32270915 47.60421497-47.5946031 0-26.29232005-21.30588779-47.61623039-47.60421497-47.61623038-26.29712598 0-47.60541733 21.32391035-47.60541733 47.61623038C394.44213648 556.7036087399999 415.75042666 578.0263178800001 442.04755264 578.0263178800001zM204.02046835 530.43171478c0 26.27189394 21.30708898 47.59460309 47.60541732 47.5946031 26.29712598 0 47.60541733-21.32270915 47.60541734-47.5946031 0-26.29232005-21.30829016-47.61623039-47.60541734-47.61623038C225.32755732 482.8154844 204.02046835 504.13939475 204.02046835 530.43171478z"  horiz-adv-x="1024" />

    
    <glyph glyph-name="zan-copy" unicode="&#58905;" d="M91.17273156 782.63871812c0 61.94550564 50.24657834 112.19208398 112.22044053 112.19208398h448.88299502c0.14178277 0 0.28109973-0.02835655 0.44877326-0.02835656h139.15423395c0.22438663 0 0.44877326 0.02835655 0.6731599 0.02835656h196.38638739v-617.21365582h-196.38638739c-3.50634938 0-6.84502522 0.6731599-10.26877072 1.01097275-35.06842533-100.99864305-84.5025268-240.96535387-104.64554231-287.20132936-31.59043251-72.63469308-59.14067271-96.22981064-109.49944438-106.60954181-50.07890481-10.29589438-208.22586454 63.18086502-159.24300213 257.96695651 5.04993216 20.08753529 12.20441366 48.67587191 19.7225988 78.72272165h-309.39218113c-61.97386219 0-84.16594684 50.24657834-84.16717973 112.24879707l56.11022027 448.88299503zM820.6080608 333.72736655000006l112.22044053-0.02835655v505.04869548l-140.27616711-0.0567131v-499.38231654l-1.06645296-4.76883242c-0.25274319-0.70151644 0.25274319 0.70151644 0 0 5.7514486-1.93564294 22.72469468-0.81370977 29.12094665-0.81370976zM147.28295182 277.61714628000004h350.6891849l-42.08235699-168.35901735c-23.51004791-103.49525257 61.16015241-165.75021451 84.16594685-168.3294279 16.1040561-1.79509308 61.86166888 6.42460851 84.16594685 56.13734392 14.58882988 32.51633559 79.00382138 211.05905402 112.86647677 305.4925387-0.11219332 1.06645296-0.6176797 1.99235604-0.61767969 3.08593266v533.04894186l-533.04770897 0.0567131c-30.97275281 0-56.11022027-25.13746745-56.11145317-56.13857681l-56.11022026-448.88299502c-0.02835655-31.00110936 25.10911089-56.11022027 56.08186371-56.11022027z"  horiz-adv-x="1024" />

    
    <glyph glyph-name="dianzan1" unicode="&#59008;" d="M36.6-54.7C16.4-54.7 0-38.3 0-18.2L0 493.6c0 20.1 16.4 36.5 36.6 36.5 20.1 0 36.6-16.3 36.6-36.5l0-511.8C73.1-38.3 56.8-54.7 36.6-54.7zM914.7 530.1 698.1 530.1c15.8 36.6 33.9 131.1 23.4 217C713 815.8 673 868.3 614.3 888.2 570.8 902.9 525 895.8 500.2 870.5c-29.4-29.9-43.2-86.6-57.9-146.5-9.6-39.2-19.5-79.8-31.8-100.7-35.5-60.4-110-88-125-93.1L182.9 530.2c-20.1 0-36.6-16.3-36.6-36.5l0-511.8c0-20.1 16.4-36.5 36.6-36.5l99 0c30.5-16.5 144.4-73.1 276.3-73.1l246.8 0c40.7 0 110.7 15.7 136.9 59.2 26.4 43.8 82.3 443.8 82.3 488.2C1023.9 480.8 964.1 530.1 914.7 530.1zM879-31c-5.5-9.2-41.6-23.7-74.1-23.7L558.1-54.7c-130.7 0-245.9 73.2-247.1 73.2l0 0c-5.5 0-11.5 0-18.4 0l-73.2 0L219.4 457.2l73.1 0c3 0 5.7 1 8.5 1.6 0.6 0.2 1.2 0 1.7 0.2 0.2 0.1 1 0.3 1.9 0.6 1 0.3 1.9 0.6 2.9 1 22.3 7.3 117.2 42.6 166 125.6 17.7 30.1 28.4 74 39.8 120.4 10.6 43.2 23.7 97 39 112.6 3.5 3 20.6 6.9 42-1.5 17.5-7 47.9-26.5 54.5-79.7 14.4-117.1-36-228.6-36.4-229.7-5.3-11.3-4.3-24.2 2.4-34.8 6.7-10.5 18.4-16.4 30.7-16.4l269 0c9.8 0 36.1-17.2 36.1-37.5C950.7 371 894.3 3.7 879-31z"  horiz-adv-x="1025" />

    
    <glyph glyph-name="lianjie" unicode="&#58906;" d="M640.280246 449.69835133L651.080958 440.95210633C673.267111 422.98611533 675.906385 388.66921033 655.738583 363.76404633000004L639.936172 344.24969233C629.91802 331.87830833 631.825695 313.72800433 644.197079 303.70985233 656.568465 293.69170333 674.71877 295.59937633000004 684.736918 307.97076232999996L700.539333 327.48511433C740.303591 376.58988833 734.866693 447.28260633 687.359888 485.75285633L676.559175 494.49910133C664.187792 504.51725033 646.037487 502.60957733 636.019335 490.23819133 626.001187 477.86680733 627.908859 459.71650333 640.280246 449.69835133L640.280246 449.69835133ZM516.675951 184.82625632999998L342.226974-30.600286669999946C322.279949-55.23281467000004 288.116449-59.777065669999956 265.970968-41.844011669999986L98.414464 93.84057332999998C76.313374 111.73768232999998 73.631921 146.16128232999995 93.495592 170.69087533000004L417.438145 570.7266123300001C437.322881 595.28221533 471.459434 599.8481153299999 493.38958 582.08943133L509.343235 569.1704203300001C521.714619 559.15226833 539.864923 561.05994333 549.883075 573.43132633 559.901224 585.80271333 557.993551 603.95301733 545.622165 613.9711693300001L529.668512 626.89018133C482.411692 665.1579993299999 412.114283 655.75543733 372.637395 607.00554533L48.694843 206.96980732999998C9.21978 158.22216232999995 14.734633 87.42431533000001 62.135533 49.03982332999999L229.692037-86.64475766999999C277.14875-125.07444767000004 347.477501-115.71967867000001 387.027724-66.87921967L561.4767 148.54732733000003C571.494849 160.91871032999995 569.587177 179.06901532999996 557.21579 189.08716733000006 544.844407 199.10531533000005 526.694099 197.19764333 516.675951 184.82625632999998L516.675951 184.82625632999998ZM848.136377 806.15585133C868.12228 830.83638733 904.628944 834.61301533 929.355096 814.59017133L1088.169072 685.98514933C1112.957803 665.91163033 1116.801922 629.48133133 1096.805383 604.78766033L774.170479 206.36673432999999C754.184575 181.68620033000002 717.677912 177.90957232999995 692.95176 197.93241633000002L534.137783 326.53743533C509.349052 346.61095633 505.504933 383.04125633 525.501473 407.73492433L848.136377 806.15585133 848.136377 806.15585133ZM803.335627 842.43478333L480.700723 444.01385633C440.661207 394.56917133 448.335591 321.83983533 497.858854 281.73668833L656.672827 153.13166633000003C706.108994 113.09904732999996 778.9224 120.63162033000003 818.971228 170.08780533000004L1141.606132 568.50873133C1181.645649 617.95341633 1173.971268 690.68275233 1124.448002 730.78589833L965.634028 859.39092033C916.197862 899.42353933 843.384455 891.89096433 803.335627 842.43478333L803.335627 842.43478333Z"  horiz-adv-x="1190" />

    
    <glyph glyph-name="jiazai2" unicode="&#58916;" d="M512 772.3614811c-214.52117333 0-388.3614811-173.88885333-388.3614811-388.3614811s173.84030777-388.3614811 388.3614811-388.3614811c214.47262777 0 388.3614811 173.88885333 388.3614811 388.3614811l97.09036999 0c0-268.11505778-217.38533888-485.45185223-485.45185223-485.45185223C243.88494222-101.45185222999999 26.54814777 115.88494221999997 26.54814777 384S243.88494222 869.45185223 512 869.45185223L512 772.3614811z"  horiz-adv-x="1024" />

    
    <glyph glyph-name="dianzan2" unicode="&#58995;" d="M889.6 499.2 608 499.2C633.6 633.6 684.8 800 576 851.2 460.8 902.4 454.4 832 441.6 716.8c-12.8-121.6-192-249.6-192-249.6l0-563.2 608 0c83.2 38.4 134.4 377.6 160 499.2C1043.2 524.8 889.6 499.2 889.6 499.2zM0 467.2l179.2 0 0-569.6-179.2 0 0 569.6Z"  horiz-adv-x="1024" />

    
    <glyph glyph-name="shipin1" unicode="&#59089;" d="M1001.761391 647.168c-21.615304 13.55687-50.086957 13.55687-78.135652 0l-206.536348-99.750957 0 41.115826c0 61.373217-49.93113 111.304348-111.304348 111.304348L123.035826 699.837217c-61.373217 0-111.304348-42.896696-111.304348-95.632696l0-433.797565c0-63.465739 28.761043-111.304348 66.938435-111.304348l44.677565 0 0 44.521739L78.669913 103.624348c-4.429913 0-22.416696 21.481739-22.416696 66.782609L56.253217 604.204522c0 27.714783 30.586435 51.110957 66.782609 51.110957l482.749217 0c36.819478 0 66.782609-29.96313 66.782609-66.782609l0-418.125913c0-36.819478-29.96313-66.782609-66.782609-66.782609L262.633739 103.624348l0-44.521739 343.151304 0c61.373217 0 111.304348 49.93113 111.304348 111.304348l0 40.96 206.60313-100.663652c14.113391-6.878609 28.315826-10.306783 41.71687-10.306783 13.222957 0 25.644522 3.33913 36.374261 10.061913 21.593043 13.490087 33.970087 39.112348 33.970087 70.299826L1035.753739 576.801391C1035.731478 607.966609 1023.354435 633.61113 1001.761391 647.168zM991.209739 180.758261c0-15.493565-4.763826-27.358609-13.04487-32.545391-8.325565-5.164522-21.058783-4.251826-34.971826 2.515478L717.089391 260.897391 717.089391 497.997913l225.881043 109.078261c13.957565 6.722783 26.779826 7.613217 35.105391 2.381913 8.347826-5.231304 13.133913-17.14087 13.133913-32.656696L991.209739 180.758261zM172.78887 538.802087m-32.300522 0a1.451 1.451 0 1 0 64.601043 0 1.451 1.451 0 1 0-64.601043 0ZM816.64 262.500174"  horiz-adv-x="1036" />

    
    <glyph glyph-name="liaotian1" unicode="&#58888;" d="M128-59.733333c-8.533333 0-17.066667 4.266667-21.333333 8.533333-8.533333 8.533333-12.8 21.333333-8.533333 34.133333l21.333333 68.266667c0 4.266667 0 12.8-4.266667 17.066667C42.666667 123.733333 0 204.8 0 285.866667c0 170.666667 166.4 307.2 366.933333 307.2 200.533333 0 366.933333-136.533333 366.933333-307.2 0-170.666667-166.4-307.2-366.933333-307.2-29.866667 0-59.733333 4.266667-93.866667 8.533333-4.266667 0-8.533333 0-8.533333 0l-123.733333-46.933333C136.533333-59.733333 132.266667-59.733333 128-59.733333zM366.933333 529.066667c-166.4 0-302.933333-110.933333-302.933333-243.2 0-64 29.866667-123.733333 89.6-170.666667 25.6-21.333333 34.133333-51.2 25.6-85.333333l-4.266667-8.533333 64 25.6c12.8 4.266667 29.866667 8.533333 46.933333 4.266667 200.533333-42.666667 384 81.066667 384 234.666667C669.866667 422.4 533.333333 529.066667 366.933333 529.066667zM896 174.933333c-4.266667 0-8.533333 0-12.8 4.266667L785.066667 213.333333c-17.066667 4.266667-25.6 25.6-17.066667 42.666667 4.266667 17.066667 25.6 25.6 42.666667 17.066667l38.4-17.066667-4.266667 8.533333c-8.533333 29.866667 0 64 25.6 85.333333 55.466667 46.933333 89.6 106.666667 89.6 170.666667 0 132.266667-136.533333 243.2-302.933333 243.2-110.933333 0-213.333333-51.2-268.8-128-8.533333-12.8-29.866667-17.066667-42.666667-8.533333-12.8 8.533333-17.066667 29.866667-8.533333 42.666667 64 98.133333 187.733333 157.866667 320 157.866667 200.533333 0 366.933333-136.533333 366.933333-307.2 0-85.333333-38.4-162.133333-110.933333-221.866667-4.266667-4.266667-8.533333-8.533333-4.266667-17.066667l21.333333-68.266667c4.266667-12.8 0-25.6-8.533333-34.133333C908.8 174.933333 900.266667 174.933333 896 174.933333zM204.8 281.6m-38.4 0a0.9 0.9 0 1 0 76.8 0 0.9 0.9 0 1 0-76.8 0ZM204.8 234.666667c-25.6 0-46.933333 21.333333-46.933333 46.933333s21.333333 46.933333 46.933333 46.933333 46.933333-21.333333 46.933333-46.933333S230.4 234.666667 204.8 234.666667zM204.8 307.2c-12.8 0-25.6-12.8-25.6-25.6S192 256 204.8 256s25.6 12.8 25.6 25.6S217.6 307.2 204.8 307.2zM362.666667 281.6m-38.4 0a0.9 0.9 0 1 0 76.8 0 0.9 0.9 0 1 0-76.8 0ZM362.666667 234.666667c-25.6 0-46.933333 21.333333-46.933333 46.933333s21.333333 46.933333 46.933333 46.933333 46.933333-21.333333 46.933333-46.933333S388.266667 234.666667 362.666667 234.666667zM362.666667 307.2c-12.8 0-25.6-12.8-25.6-25.6S349.866667 256 362.666667 256s25.6 12.8 25.6 25.6S379.733333 307.2 362.666667 307.2zM524.8 281.6m-38.4 0a0.9 0.9 0 1 0 76.8 0 0.9 0.9 0 1 0-76.8 0ZM524.8 234.666667c-25.6 0-46.933333 21.333333-46.933333 46.933333s21.333333 46.933333 46.933333 46.933333 46.933333-21.333333 46.933333-46.933333S550.4 234.666667 524.8 234.666667zM524.8 307.2c-12.8 0-25.6-12.8-25.6-25.6s12.8-25.6 25.6-25.6 25.6 12.8 25.6 25.6S537.6 307.2 524.8 307.2z"  horiz-adv-x="1024" />

    
    <glyph glyph-name="zan-copy1" unicode="&#58908;" d="M48.29760001 357.44368c0-58.46736 35.28896-107.4416 82.98191999-121.39232 0.33712-0.1344 1.5456-0.26768 3.55712-0.26768h243.25840001c0.93408 0 1.47391999-4.73088 1.27455998-5.56752-35.28896-113.27680001-17.91552-219.47632-17.24463999-222.96400001 0.06944-0.0672 0.06944-0.16688 0.06944-0.23519999 0-69.3 49.50736-125.41872 110.55856-125.41872 56.62048 0 103.1128 48.13536 109.82048 110.25728001h0.06608c22.33951999 210.21504 164.89984 272.94176 196.96655999 284.54832 0.20048 0.06608 0.40208 0 0.60032002 0 1.87824-0.3696 3.8248 0 5.83632 0h149.60623999c22.13791999 0 40.05007999 20.05808 40.04896001 45.11471999v521.33312c0 25.15632-17.91216 43.37312-40.05008001 43.37312h-689.38464001c-3.892 0.40543999-7.8512 0-11.80927999 0-72.9232 0-98.14672001-68.22816-98.14672-68.22816001-7.98448-17.30959999-83.1208-424.0544-83.12079999-424.05439999s0 0-0.06608002 0c-1.40896001-5.43535999-2.48304-11.13952-3.22447999-16.83919999l-0.33376001-1.84464v-0.13104c-0.73696-5.77360001-1.27008-11.71296-1.26895999-17.68368001M833.01104 791.39664c0 13.48256 10.93456001 24.42048 24.42048 24.42048 13.4176 0 24.41936-10.9368 24.41936-24.42048v-420.06608c0-13.44784-11.00064-24.38352-24.41936-24.38240001-13.48592 0-24.42048 10.93456001-24.42048 24.38352v420.06608001z"  horiz-adv-x="1024" />

    
    <glyph glyph-name="daohang" unicode="&#58914;" d="M420.15779178 891.46202494l183.68441644 0 0-183.68441641-183.68441644 0 0 183.68441641ZM420.15779178 478.18036532l183.68441644 0 0-183.66786513-183.68441644 0 0 183.66786513ZM420.15779178 64.89870457999996l183.68441644 0 0-183.68441644-183.68441644 0 0 183.68441644Z"  horiz-adv-x="1024" />

    
    <glyph glyph-name="zan1" unicode="&#58991;" d="M998.46826667 599.53152c-17.03936 125.14645333-131.59082667 186.75029333-136.50602667 189.34442667-42.13418667 22.06378667-83.88608 33.25952-124.08149333 33.25952-120.4224 0-196.47146667-97.29365333-228.88448-150.10474667-63.95221333 101.55349333-139.264 152.99925333-224.13312 152.99925333-99.31434667 0-172.46890667-72.55381333-175.66378667-75.74869333-166.40682667-170.03861333-48.68778667-375.05706667-48.36010667-375.43936 81.81077333-174.08 429.99808-416.9728 444.77098667-427.2128 3.49525333-2.43029333 7.59125333-3.65909333 11.68725333-3.65909333 3.85024 0 7.72778667 1.09226667 11.08650667 3.2768 60.73002667 39.15776 229.02101333 182.87274667 324.21205333 273.06666666 37.65589333 35.71712 97.43018667 112.25770667 111.08352 139.23669334C1010.51050667 450.95594667 1008.08021333 528.9984 998.46826667 599.53152zM927.14325333 377.06410667c-10.70421333-21.13536-66.60096-93.77109333-102.72768-128.01365334-88.4736-83.80416-240.18944-214.00234667-306.84501333-260.66944-61.24885333 43.77258667-350.53568 255.80885333-420.54997333 404.60288-1.03765333 1.77493333-103.24650667 179.78709333 41.34229333 327.54346667 0.62805333 0.62805333 64.55296 63.56992 146.50026667 63.56992 77.25056 0 146.82794667-54.96832 206.87530666-163.37578667 3.76832-6.77205333 10.75882667-10.89536 18.73237334-10.54037333 7.72778667 0.30037333 14.63637333 4.94250667 17.83125333 11.98762667 0.70997333 1.61109333 73.89184 159.03402667 209.57866667 159.03402666 33.53258667 0 68.86741333-9.61194667 105.04874666-28.56277333 1.01034667-0.54613333 100.70698667-54.12181333 114.93376-158.59712C966.00064 534.40512 970.99776 463.57162667 927.14325333 377.06410667z"  horiz-adv-x="1024" />

    
    <glyph glyph-name="haoyou" unicode="&#58922;" d="M950.289895 259.888092c-38.161726 55.038284-89.705979 96.340881-149.515429 120.154135 26.44567 18.505653 48.615439 43.317031 64.735509 72.28599 18.639163 33.501286 28.48069 71.656217 28.48069 110.446317 0 121.169647-93.862161 219.650477-209.087639 219.650477-16.356111 0-29.706459-13.348949-29.706459-29.724047 0-16.388489 13.350348-29.715853 29.706459-29.715853 82.496867 0 149.623355-71.915042 149.623355-160.211976 0-88.406061-67.126488-160.330696-149.623355-160.330696-16.356111 0-29.706459-13.342354-29.706459-29.707858l0-0.125315c0-16.380494 13.350348-29.724047 29.706459-29.724047 148.365208 0 269.146519-128.715931 269.146519-286.898483 0-16.373699 13.335359-29.722648 29.725446-29.722648 16.3723 0 29.721449 13.348949 29.721449 29.722648C1013.355937 129.919411 991.565311 200.324076 950.289895 259.888092M643.355197 310.39285c-31.107709 22.041456-65.113053 39.546587-100.882602 51.882823 75.692281 45.977627 122.16757 127.954047 122.16757 217.004671 0 139.919535-113.856605 253.759951-253.781536 253.759951-140.053044 0-253.909649-113.839217-253.909649-253.885266 0-47.608122 13.350348-94.088808 38.555459-134.393281 21.410484-34.122865 50.379243-62.594161 84.637016-83.117047-36.540825-12.460352-70.923914-30.092197-102.519692-52.517993C143.111962 284.69947 112.883657 255.229051 87.427716 221.475536c-52.629917-70.277952-80.464645-153.774141-80.464645-241.685337 0-16.373699 13.350348-29.724047 29.724047-29.724047s29.724047 13.350348 29.724047 29.724047c0 91.56292 35.768149 177.954347 100.646562 243.070198 64.720719 64.987738 150.350263 100.757087 241.172885 100.882602 3.005962-0.25083 6.045501 0 9.052662 0.630972l2.408567 0.503059c88.400664-1.763804 171.399191-37.405239 234.621726-100.882602 64.848832-65.115851 100.505058-151.380564 100.505058-243.070198 0-16.373699 13.334159-29.724047 29.725446-29.724047 16.358909 0 29.692868 13.350348 29.692868 29.724047 0 87.911196-27.80235 171.405987-80.57517 241.692133C708.21902 256.488597 677.84901 285.959016 643.355197 310.39285M410.860029 773.60839c107.180132 0 194.461555-87.281423 194.461555-194.453361s-87.281423-194.45356-194.461555-194.45356c-107.165342 0-194.461555 87.281423-194.461555 194.45356C216.398474 686.45388 303.693488 773.60839 410.860029 773.60839"  horiz-adv-x="1030" />

    
    <glyph glyph-name="shouyeshouye" unicode="&#58921;" d="M1006.86541749 381.10889893L513.64230837 842.27206965 20.41920037 382.46359269000004c-9.6490408-8.9957616-10.18770928-24.12317488-1.16902464-33.76190049 9.00836944-9.6318488 24.15411936-10.17624832 33.79628335-1.15985631l460.56032177 429.3381848 460.58095104-430.64588784c4.62108751-4.31736928 10.48684224-6.45141391 16.341136-6.45141392 6.37347872 0 12.75039472 2.53174097 17.45400159 7.56886369C1017.00842869 356.98343141 1016.51216677 372.09823685000003 1006.86541749 381.10889893L1006.86541749 381.10889893zM1006.86541749 381.10889893M856.35688757 371.63635781000005c-13.20195967 0-23.91114544-10.70230896-23.91114544-23.88707776l0-366.2818936L641.15199109-18.532612429999972 641.15199109 236.27128517000006 386.09709701 236.27128517000006l0-254.80389872L194.8102239-18.532612429999972 194.8102239 347.74928005000004c0 13.18476881-10.69772479 23.88707777-23.90999969 23.88707776-13.21915169 0-23.91572959-10.70230896-23.91572959-23.88707776l0-414.05490224 286.93833278 0L433.92282629 188.49713077l159.40916656 0 0-254.80275183 286.93145601 0L880.26344886 347.74928005000004C880.26459461 360.93404884999995 869.55311622 371.63635781000005 856.35688757 371.63635781000005L856.35688757 371.63635781000005zM856.35688757 371.63635781000005M688.97886726 714.02658949l143.46687375 0 0-127.3985104c0-13.20425232 10.71033152-23.89280767 23.91114544-23.89280769 13.19737552 0 23.90770704 10.68855648 23.90770704 23.89280769L880.26459461 761.80074389 688.97886726 761.80074389c-13.20425232 0-23.91572959-10.68282544-23.91572961-23.88707777C665.06199078 724.71285334 675.77346917 714.02658949 688.97886726 714.02658949L688.97886726 714.02658949zM688.97886726 714.02658949"  horiz-adv-x="1024" />

    
    <glyph glyph-name="danxuananniu" unicode="&#59800;" d="M511.99999967 874.666667C241.02399967 874.666667 21.33333367 654.976 21.33333367 384s219.690667-490.666667 490.666667-490.666667S1002.66666667 113.024 1002.66666667 384 782.97599967 874.666667 511.99999967 874.666667zM511.99999967-64C264.57599967-64 63.99999967 136.57600000000002 63.99999967 384S264.57599967 832 511.99999967 832 959.99999967 631.424 959.99999967 384 759.42399967-64 511.99999967-64zM511.99999967 628.010667c-134.741333 0-244.010667-108.928-244.010667-243.328 0-134.4 109.226667-243.328 244.010667-243.328s244.010667 108.928 244.010667 243.328C756.01066667 519.04 646.74133367 628.010667 511.99999967 628.010667z"  horiz-adv-x="1024" />

    
    <glyph glyph-name="daohang1" unicode="&#59245;" d="M998.6053418 2.887932439999986L29.25508402 2.887932439999986c-12.42756741 0-20.71261275 8.28504534-20.71261275 20.71261274s8.28504534 20.71261275 20.71261275 20.71261276L998.6053418 44.313157939999996c12.42756741 0 20.71261275-8.28504534 20.71261275-20.71261276S1011.0329092 2.887932439999986 998.6053418 2.887932439999986zM998.6053418 748.54197689L29.25508402 748.54197689C16.82751661 748.54197689 8.54247127 756.82702222 8.54247127 765.11206756s8.28504534 20.71261275 20.71261275 20.71261275L998.6053418 785.8246791c12.42756741 0 20.71261275-8.28504534 20.71261275-20.71261274S1011.0329092 748.54197689 998.6053418 748.54197689zM998.6053418 379.85747793999997L29.25508402 379.85747793999997c-12.42756741 0-20.71261275 8.28504534-20.71261275 20.71261275s8.28504534 20.71261275 20.71261275 20.71261274L998.6053418 421.28270222c12.42756741 0 20.71261275-8.28504534 20.71261275-20.71261275S1011.0329092 379.85747793999997 998.6053418 379.85747793999997z"  horiz-adv-x="1024" />

    
    <glyph glyph-name="youxiang1" unicode="&#58933;" d="M913.40799999 768.30549333L110.59200001 768.30549333C55.18336 768.30549333 10.23999999 722.07189334 10.23999999 664.9429333200001l0-551.21919998c0-57.05728 44.94336-103.36255999 100.35200002-103.36256001l802.81599998 0c55.40864 0 100.352 46.30528001 100.35200002 103.36256001l0 551.21919998C1013.76000001 722.07189334 968.81664 768.30549333 913.40799999 768.30549333zM972.47232001 152.71765331999995c0-55.33696001-44.15488-100.20864-98.70336-100.20863999L150.23103999 52.509013330000016c-54.4768 0-98.70336 44.87168-98.70336 100.20863999L51.52767999 625.94901334c0 55.33696001 44.15488 100.20864 98.70336 100.20863999l723.53792002 0c54.4768 0 98.70336-44.87168 98.70336-100.20863999L972.47232001 152.71765331999995zM879.93344 639.99829333l-24.22783999 24.94463999L495.01184 293.42549333 155.89376 642.65045333l-23.6544-24.3712 171.60192-176.76288L110.59200001 242.53269333000003l24.65791999-25.4464 193.24928 199.05536 167.0144-172.032 23.6544 24.3712L680.448 434.49173333l222.06464-196.0448 21.79072 26.1632-220.12928 194.32448L879.93344 639.99829333z"  horiz-adv-x="1024" />

    
    <glyph glyph-name="cart" unicode="&#59022;" d="M830.013662 765.619467h-59.385348c-13.5716 0-24.573248-11.001648-24.573248-24.573248s11.001648-24.573248 24.573248-24.573248h59.385348c9.032716 0 16.382165-7.349449 16.382166-16.382165v-757.504152c0-9.032716-7.349449-16.382165-16.382166-16.382165H192.918425c-9.032716 0-16.382165 7.349449-16.382165 16.382165V700.090806c0 9.032716 7.349449 16.382165 16.382165 16.382165h60.710257c13.5716 0 24.573248 11.001648 24.573247 24.573248s-11.001648 24.573248-24.573247 24.573248h-60.710257c-36.132913 0-65.528661-29.395748-65.528661-65.528661v-757.504152c0-36.132913 29.395748-65.528661 65.528661-65.52866h637.095237c36.132913 0 65.528661 29.395748 65.528661 65.52866V700.090806c0 36.132913-29.395748 65.528661-65.528661 65.528661zM328.066169 716.472971h368.612027c13.5716 0 24.573248 11.001648 24.573248 24.573248s-11.001648 24.573248-24.573248 24.573248h-51.538292c-6.729998 71.774361-64.563137 128.037884-134.685971 128.037883-70.12181 0-127.954949-56.263522-134.684947-128.037883h-47.702817c-13.5716 0-24.573248-11.001648-24.573248-24.573248s11.001648-24.573248 24.573248-24.573248zM510.453933 844.511879c43.109668 0 78.928248-34.287872 85.217976-78.891388H425.236981c6.289728 44.602493 42.108308 78.891388 85.216952 78.891388zM258.789064 529.757243c0-13.5716 11.001648-24.573248 24.573247-24.573248h455.294159c13.5716 0 24.573248 11.001648 24.573248 24.573248s-11.001648 24.573248-24.573248 24.573248H283.362311c-13.5716 0-24.573248-11.001648-24.573247-24.573248zM738.65647 341.363367H283.362311c-13.5716 0-24.573248-11.001648-24.573247-24.573247s11.001648-24.573248 24.573247-24.573248h455.294159c13.5716 0 24.573248 11.001648 24.573248 24.573248s-11.001648 24.573248-24.573248 24.573247zM738.65647 128.39522H283.362311c-13.5716 0-24.573248-11.001648-24.573247-24.573248s11.001648-24.573248 24.573247-24.573248h455.294159c13.5716 0 24.573248 11.001648 24.573248 24.573248s-11.001648 24.573248-24.573248 24.573248z"  horiz-adv-x="1024" />

    
    <glyph glyph-name="arrowdown" unicode="&#59026;" d="M19.77035609 620.94830312c-0.11965653-6.93329616 2.40554475-13.9094873 7.60382342-19.29063655l425.70797332-440.60180346c27.68125688-28.64866757 73.50851277-29.4377224 102.15943825-1.75759336 0.13884664 0.1343308 0.27656433 0.26979167 0.41315305 0.40750935l437.89373271 441.58163159c10.535404 10.62458192 10.46428724 27.77833643-0.16142363 38.31374043-10.62458192 10.535404-27.77946539 10.46315828-38.3148694-0.16142364L517.42679585 198.10869523999997c-3.44858692-3.25104097-7.94811764-4.99396007-12.6959909-4.91268377-4.82350586 0.08240526-9.32642346 2.0398025-12.67905869 5.50870739L66.34377185 639.3076523899999c-10.39768633 10.76004169-27.54805394 11.05466717-38.30922459 0.65923878C22.65452586 634.76861249 19.89001262 627.88047031 19.77035609 620.94830312z"  horiz-adv-x="1025" />

    
    <glyph glyph-name="arrowleft1" unicode="&#59027;" d="M731.94924336-114.73257616000001c-7.04449536 0-14.08554896 2.68683856-19.46152096 8.0605168l-440.08884752 440.0899944c-28.61603808 28.61603808-28.61603808 75.17644512 0 103.79248432 0.1387568 0.1387568 0.27980736 0.27636672 0.42085792 0.411684l456.17777183 437.04766224c10.97555872 10.5145656 28.39815552 10.14301793 38.91386801-0.8336888s10.14301793-28.39815552-0.83368879-38.913868L311.15793088 398.12339263c-3.36227584-3.445988-5.2108392-7.98597744-5.21083921-12.80921486 0-4.90006944 1.90934129-9.50886384 5.37482513-12.97320081l440.08884752-440.08884752c10.74735536-10.74850224 10.74735536-28.1733928 0-38.92189504C746.03708608-112.04459071999997 738.99144496-114.73257616000001 731.94924336-114.73257616000001z"  horiz-adv-x="1025" />

    
    <glyph glyph-name="arrowright" unicode="&#59028;" d="M299.88171462-109.39924283000005c7.04449536 0 14.08554896 2.68683856 19.46152094 8.0605168l440.08884753 440.0899944c28.61603808 28.61603808 28.61603808 75.17644512 0 103.79248432-0.1387568 0.1387568-0.27980736 0.27636672-0.42085792 0.411684l-456.17777184 437.04766224c-10.97555872 10.5145656-28.39815552 10.14301793-38.91386801-0.8336888s-10.14301793-28.39815552 0.83368882-38.913868l455.91975295-436.79996416c3.36227584-3.445988 5.2108392-7.98597744 5.2108392-12.80921488 0-4.90006944-1.90934129-9.50886384-5.37482513-12.9732008l-440.08884751-440.08884752c-10.74735536-10.74850224-10.74735536-28.1733928 0-38.92189504C285.79387189-106.71125739000001 292.83951301-109.39924283000005 299.88171462-109.39924283000005z"  horiz-adv-x="1025" />

    
    <glyph glyph-name="arrowup" unicode="&#59029;" d="M18.36770168 162.85143559000005c-0.12136818 7.03247425 2.43995513 14.10845707 7.71259316 19.56658156l431.79755953 446.90444012c28.07722645 29.05847556 74.56002332 29.85881752 103.62078909 1.78273505 0.14083279-0.13625235 0.28052048-0.27365094 0.41906305-0.41333861l444.15763149-447.89828431c10.68610885-10.77656241 10.61397478-28.17569468-0.16373276-38.86180351-10.77656241-10.68610885-28.17683979-10.61282967-38.86294861 0.16373273L523.14292236 591.73959886c-3.49791761 3.29754584-8.06181236 5.06539671-12.87760207 4.98295778-4.89250422-0.08472914-9.4598343-2.06898109-12.86042768-5.5875073L65.60733195 144.22946299c-10.54642116-10.91395987-27.94211809-11.21279987-38.85722308-0.66866891C21.29312836 148.83343209999998 18.48906985 155.82010756 18.36770168 162.85143559000005zM970.115987 644.467212"  horiz-adv-x="1025" />

    
    <glyph glyph-name="down" unicode="&#59048;" d="M461.92095915-100.15370467000002c0.13979421-0.14212437 0.28191858-0.28308366 0.42404295-0.42171279 12.71430713-12.37181099 29.41392327-19.15067847 47.11772843-19.15067847 0.31570261 0 0.63140523 0.00116509 0.94710784 0.00582428 18.01950777 0.24697059 34.86590749 7.48016981 47.44857486 20.37271552l380.86189624 386.58182031c10.83756658 10.99949511 10.70476174 28.70213632-0.29473336 39.53853781-10.99833003 10.83640149-28.70330141 10.70476174-39.53853782-0.29473337l-359.31840284-364.71679886L539.56863545 865.87621945c0 15.44146489-12.51743061 27.9588955-27.9588955 27.9588955-15.44146489 0-27.9588955-12.51743061-27.9588955-27.9588955l0-908.39848732L118.73949923 328.09851904000004c-10.83290738 11.00299037-28.53554745 11.1404544-39.53853781 0.30638307-11.00299037-10.83290738-11.1404544-28.53554745-0.30754816-39.53853781L461.92095915-100.15370467000002z"  horiz-adv-x="1025" />

    
    <glyph glyph-name="up" unicode="&#59049;" d="M78.89341326 485.24265472c-10.83290738-11.00299037-10.69544221-28.70563043 0.30754816-39.53853781 11.00299037-10.83407246 28.70563043-10.69660729 39.53853781 0.30638307l364.91134635 370.62078578 0-908.39848733c0-15.44146489 12.51743061-27.9588955 27.95889551-27.9588955 15.44146489 0 27.9588955 12.51743061 27.9588955 27.9588955L539.56863545 812.3477504l359.31840284-364.71679886c10.83523641-10.99949511 28.54020779-11.13113486 39.53853782-0.29473337 10.99949511 10.83640149 11.13229995 28.5390427 0.29473336 39.53853781L557.85841323 873.45657515c-12.58266738 12.89254571-29.42906709 20.12574493-47.44857486 20.37271552-0.31570261 0.00466034-0.63140523 0.00582429-0.94710784 0.00582428-17.70380515 0-34.40342016-6.77886749-47.11772843-19.15067847-0.14212437-0.13862912-0.28424875-0.27958841-0.42404295-0.42171278L78.89341326 485.24265472z"  horiz-adv-x="1025" />

    
    <glyph glyph-name="error" unicode="&#59057;" d="M982.668821 582.25082c-25.810101 60.752236-62.714 115.373446-109.685763 162.346233-46.972787 46.971763-101.593997 83.875662-162.346233 109.685763C647.666853 881.033868 580.925912 894.598301 512.268258 894.598301S376.868639 881.033868 313.898667 854.282816c-60.752236-25.810101-115.373446-62.714-162.346233-109.685763-46.971763-46.972787-83.875662-101.593997-109.685763-162.346233C15.115619 519.280849 1.551186 452.539908 1.551186 383.881229S15.115619 248.482634 41.866671 185.512663c25.810101-60.75326 62.714-115.37447 109.685763-162.346233 46.971763-46.972787 101.592974-83.876686 162.346233-109.685763 62.969971-26.752076 129.710912-40.316509 198.369591-40.316509s135.398595 13.564433 198.368567 40.316509c60.75326 25.809077 115.37447 62.712976 162.346233 109.685763 46.972787 46.971763 83.876686 101.592974 109.685763 162.346233 26.752076 62.969971 40.316509 129.710912 40.316509 198.368567S1009.419873 519.280849 982.668821 582.25082zM937.435615 204.728942c-23.333323-54.923257-56.71096-104.317532-99.204249-146.811845-42.494313-42.493289-91.888588-75.870926-146.811845-99.204249-56.8584-24.155503-117.133505-36.403219-179.152287-36.403219-62.018782 0-122.293887 12.247716-179.152287 36.403219-54.923257 23.333323-104.317532 56.71096-146.810821 99.204249-42.493289 42.494313-75.870926 91.888588-99.204249 146.811845C62.944374 261.587342 50.697682 321.863471 50.697682 383.881229c0 62.018782 12.247716 122.293887 36.403219 179.152287 23.333323 54.923257 56.709936 104.317532 99.204249 146.810821s91.888588 75.870926 146.810821 99.204249c56.8584 24.155503 117.133505 36.403219 179.152287 36.403219 62.017758 0 122.292863-12.247716 179.152287-36.403219 54.923257-23.333323 104.317532-56.709936 146.810821-99.204249 42.494313-42.493289 75.870926-91.888588 99.205273-146.810821 24.155503-56.8584 36.403219-117.134529 36.403219-179.152287S961.591118 261.587342 937.435615 204.728942zM704.62457 576.230374c-9.997216 9.996192-26.203273 9.996192-36.199466 0L512.382933 420.189227 356.341786 576.230374c-9.996192 9.996192-26.204297 9.996192-36.199466 0-9.996192-9.996192-9.996192-26.203273 0-36.199466l156.041147-156.041147L320.14232 227.94759c-9.996192-9.997216-9.996192-26.204297 0-36.199466 4.997584-4.998608 11.549426-7.496888 18.100245-7.496888s13.101637 2.49828 18.100245 7.496888l156.041147 156.041147L668.424081 191.748124c4.998608-4.998608 11.548403-7.496888 18.100245-7.496888s13.101637 2.49828 18.100245 7.496888c9.996192 9.996192 9.996192 26.203273 0 36.199466L548.583423 383.988737l156.041147 156.041147C714.620762 550.026077 714.620762 566.234182 704.62457 576.230374z"  horiz-adv-x="1025" />

    
    <glyph glyph-name="prompt" unicode="&#59058;" d="M637.349161 587.229974M512.53242-126.476459c-68.658678 0-135.399619 13.564433-198.369591 40.316509-60.752236 25.809077-115.373446 62.712976-162.346233 109.685763-46.971763 46.971763-83.875662 101.592974-109.685763 162.346233-26.751052 62.969971-40.315485 129.710912-40.315485 198.368567s13.564433 135.399619 40.315485 198.369591c25.810101 60.752236 62.714 115.373446 109.685763 162.346233 46.972787 46.971763 101.593997 83.875662 162.346233 109.685763 62.969971 26.751052 129.710912 40.315485 198.369591 40.315485s135.398595-13.564433 198.368567-40.315485c60.752236-25.810101 115.37447-62.714 162.346233-109.685763 46.972787-46.972787 83.876686-101.593997 109.686787-162.346233 26.752076-62.969971 40.316509-129.710912 40.316509-198.369591s-13.564433-135.398595-40.316509-198.368567c-25.810101-60.75326-62.712976-115.37447-109.685763-162.346233-46.971763-46.972787-101.593997-83.876686-162.346233-109.685763C647.93204-112.912026 581.190075-126.476459 512.53242-126.476459zM512.53242 845.811189c-62.018782 0-122.293887-12.247716-179.152287-36.403219-54.923257-23.333323-104.317532-56.709936-146.810821-99.204249s-75.870926-91.888588-99.204249-146.810821c-24.155503-56.8584-36.403219-117.133505-36.403219-179.152287 0-62.017758 12.247716-122.292863 36.403219-179.152287 23.333323-54.923257 56.709936-104.317532 99.204249-146.811845 42.493289-42.493289 91.888588-75.870926 146.810821-99.204249 56.8584-24.155503 117.133505-36.403219 179.152287-36.403219 62.017758 0 122.293887 12.247716 179.153311 36.403219 54.923257 23.333323 104.317532 56.71096 146.810821 99.204249 42.494313 42.494313 75.87195 91.888588 99.205273 146.811845 24.155503 56.8584 36.403219 117.133505 36.403219 179.152287s-12.247716 122.293887-36.404243 179.152287c-23.333323 54.923257-56.71096 104.317532-99.204249 146.810821-42.494313 42.493289-91.888588 75.870926-146.811845 99.204249C634.825284 833.563473 574.550178 845.811189 512.53242 845.811189zM512.442318 128.801702c-14.136785 0-25.597133 11.460348-25.597133 25.597133l0 332.127922c0 14.136785 11.460348 25.597133 25.597133 25.597133s25.597133-11.460348 25.597133-25.597133l0-332.127922C538.039452 140.262051 526.578079 128.801702 512.442318 128.801702zM511.381573 576.075768c-17.522773 0-31.778329 14.255555-31.778329 31.778329 0 17.52175 14.255555 31.777305 31.778329 31.777305 17.52175 0 31.777305-14.255555 31.777305-31.777305C543.158878 590.331323 528.903323 576.075768 511.381573 576.075768z"  horiz-adv-x="1025" />

    
    <glyph glyph-name="success" unicode="&#59059;" d="M511.679524-127.15939c-68.658678 0-135.399619 13.564433-198.369591 40.316509-60.752236 25.809077-115.373446 62.712976-162.346233 109.685763-46.971763 46.971763-83.875662 101.592974-109.685763 162.346233-26.751052 62.969971-40.315485 129.710912-40.315485 198.368567s13.564433 135.399619 40.315485 198.369591c25.810101 60.752236 62.714 115.373446 109.685763 162.346233 46.972787 46.971763 101.593997 83.875662 162.346233 109.685763C376.279905 880.71032 443.020846 894.274753 511.679524 894.274753S647.078119 880.71032 710.048091 853.959269c60.752236-25.810101 115.37447-62.714 162.346233-109.685763 46.972787-46.972787 83.876686-101.593997 109.686787-162.346233 26.752076-62.969971 40.316509-129.710912 40.316509-198.369591s-13.564433-135.398595-40.316509-198.368567c-25.810101-60.75326-62.712976-115.37447-109.685763-162.346233-46.971763-46.972787-101.593997-83.876686-162.346233-109.685763C647.079143-113.594957 580.337178-127.15939 511.679524-127.15939zM511.679524 845.128258c-62.018782 0-122.293887-12.247716-179.152287-36.403219-54.923257-23.333323-104.317532-56.709936-146.810821-99.204249s-75.870926-91.888588-99.204249-146.810821c-24.155503-56.8584-36.403219-117.133505-36.403219-179.152287 0-62.017758 12.247716-122.292863 36.403219-179.152287 23.333323-54.923257 56.709936-104.317532 99.204249-146.811845 42.493289-42.493289 91.888588-75.870926 146.810821-99.204249 56.8584-24.155503 117.133505-36.403219 179.152287-36.403219 62.017758 0 122.293887 12.247716 179.153311 36.403219 54.923257 23.333323 104.317532 56.71096 146.810821 99.204249 42.494313 42.494313 75.87195 91.888588 99.205273 146.811845 24.155503 56.8584 36.403219 117.133505 36.403219 179.152287s-12.247716 122.293887-36.404243 179.152287c-23.333323 54.923257-56.71096 104.317532-99.204249 146.810821-42.494313 42.493289-91.888588 75.870926-146.811845 99.204249C633.972387 832.880541 573.697282 845.128258 511.679524 845.128258zM451.780185 206.151119c-6.223175 0-12.452493 2.255619-17.365095 6.794503L253.195578 380.341658c-10.384245 9.592782-11.027245 25.787576-1.434463 36.171821 9.592782 10.386293 25.786552 11.026221 36.171821 1.434463l163.146912-150.703633 289.753404 289.754428c9.997216 9.996192 26.203273 9.996192 36.199466 0 9.996192-9.996192 9.996192-26.203273 0-36.199466L469.883501 213.648007C464.896156 208.660662 458.342266 206.151119 451.780185 206.151119z"  horiz-adv-x="1025" />

    
    <glyph glyph-name="help" unicode="&#59063;" d="M512.268258-126.835842c-68.658678 0-135.399619 13.564433-198.369591 40.316509-60.752236 25.809077-115.373446 62.712976-162.346233 109.685763-46.971763 46.971763-83.875662 101.592974-109.685763 162.346233C15.115619 248.482634 1.551186 315.222551 1.551186 383.881229S15.115619 519.280849 41.866671 582.25082c25.810101 60.752236 62.714 115.373446 109.685763 162.346233 46.972787 46.971763 101.593997 83.875662 162.346233 109.685763 62.969971 26.751052 129.710912 40.315485 198.369591 40.315485s135.398595-13.564433 198.368567-40.315485c60.752236-25.810101 115.373446-62.714 162.346233-109.685763 46.971763-46.972787 83.875662-101.593997 109.685763-162.346233 26.752076-62.969971 40.316509-129.710912 40.316509-198.369591s-13.564433-135.398595-40.316509-198.368567c-25.809077-60.75326-62.712976-115.37447-109.685763-162.346233-46.971763-46.972787-101.592974-83.876686-162.346233-109.685763C647.666853-113.27141 580.925912-126.835842 512.268258-126.835842zM512.268258 845.451805c-62.018782 0-122.293887-12.247716-179.152287-36.403219-54.923257-23.333323-104.317532-56.709936-146.810821-99.204249s-75.870926-91.888588-99.204249-146.810821c-24.155503-56.8584-36.403219-117.133505-36.403219-179.152287 0-62.017758 12.247716-122.292863 36.403219-179.152287 23.333323-54.923257 56.709936-104.317532 99.204249-146.811845 42.493289-42.493289 91.888588-75.870926 146.810821-99.204249 56.8584-24.155503 117.133505-36.403219 179.152287-36.403219 62.017758 0 122.292863 12.247716 179.152287 36.403219 54.923257 23.333323 104.317532 56.71096 146.811845 99.204249 42.493289 42.494313 75.870926 91.888588 99.204249 146.811845 24.155503 56.8584 36.403219 117.133505 36.403219 179.152287s-12.247716 122.293887-36.403219 179.152287c-23.334347 54.923257-56.71096 104.317532-99.205273 146.810821-42.493289 42.493289-91.887565 75.870926-146.810821 99.204249C634.561121 833.204089 574.286016 845.451805 512.268258 845.451805zM509.635849 233.960868c-12.806758-0.001024-23.601581 9.925544-24.490313 22.894076-3.937863 57.461468 9.411554 96.388564 21.305006 118.92428 10.555234 20.004671 31.440447 38.653719 41.477595 47.615787 1.05153 0.938903 1.925928 1.717056 2.568928 2.310909 52.08607 48.130801 51.437951 78.389684 51.308941 80.62073-0.051194 0.301022-0.097269 0.603068-0.136177 0.906139-3.954245 30.151375-17.538132 50.213384-41.527765 61.330731-13.282864 6.155599-29.039436 9.304046-46.834563 9.356264-0.558018 0.002048-1.022861 0.004096-1.388389 0.008191-1.139584 0.015358-2.262787 0.022525-3.434111 0.025597-37.411746-0.05017-62.803078-15.916297-77.620746-48.503496-11.747036-25.834675-12.07468-52.3574-12.07468-52.618491 0-13.5716-11.001648-24.573248-24.573248-24.573248s-24.573248 11.001648-24.573248 24.573248c0 1.498968 0.186347 37.121986 16.48353 72.962068 10.05353 22.10978 24.098165 39.887501 41.744829 52.838626 22.062681 16.19377 49.164926 24.425808 80.553154 24.467788 1.393508 0.008191 2.76449-0.011263 4.143664-0.029693l0.884637-0.004096c24.935703-0.072696 47.596333-4.7539 67.35732-13.912554 27.367431-12.683891 61.589774-40.134257 69.508503-98.920633 0.913306-5.3969 2.022174-19.359624-5.166525-39.883405-9.654215-27.562993-30.277313-56.07308-61.300014-84.739821-0.798631-0.737197-1.881901-1.706817-3.188379-2.87507-6.652183-5.939559-24.320348-21.715584-30.745229-33.892652-8.918041-16.901275-18.887613-46.689171-15.739165-92.629881 0.926616-13.53986-9.296879-25.268466-22.836738-26.195082C510.770314 233.980322 510.20001 233.960868 509.635849 233.960868zM602.014878 505.242357c0.002048-0.010239 0.004096-0.020478 0.006143-0.029693C602.018974 505.222903 602.016926 505.232118 602.014878 505.242357zM602.008735 505.268978c0.002048-0.007167 0.003072-0.014334 0.005119-0.021502C602.011807 505.25362 602.010783 505.261811 602.008735 505.268978zM601.795767 506.458733 601.795767 506.458733C601.795767 506.458733 601.795767 506.458733 601.795767 506.458733zM513.811253 189.537556c16.419025 0 29.729534-13.296175 29.729534-29.714176l0-7.870606c0-16.410834-13.195834-29.714176-29.729534-29.714176l0 0c-16.419025 0-29.729534 13.296175-29.729534 29.714176l0 7.870606C484.081719 176.234214 497.277553 189.537556 513.811253 189.537556L513.811253 189.537556z"  horiz-adv-x="1025" />

    
    <glyph glyph-name="atm" unicode="&#59069;" d="M511.6887392-110.35726080999996c-259.66387093 0-472.11543467 204.58375573-472.11543467 459.0020576 0 121.97832533 48.7915488 233.6850336 131.12940267 317.33236907 0.39535573 0.40190933 0.04259413 3.01104213-0.03058027 4.9441376-0.08955627 2.34483413 0.0447776 4.14359573 0.0447776 5.58194987L170.7169056 860.10254613c0 13.11446933 7.86890027 23.60560747 20.9833696 26.22893866 0 0 0 0 2.6233312 0 2.6233312 0 2.6233312 0 2.6233312 0s0 0 2.6233312 0c5.24556907 0 10.49113813 0 15.73670827-2.6233312l152.1258784-94.42352426 2.6233312-2.6233312c44.58897707 13.11446933 91.80019307 20.9833696 141.6347392 20.9833696 259.66387093 0 472.11543467-204.58375573 472.11543466-459.0020576S771.35261013-110.35726080999996 511.6887392-110.35726080999996zM511.6887392 755.1878837300001c-47.211216 0-94.42352427-7.86890027-136.38917013-23.60560747l0 0c-11.0688832-5.77089067-26.22893867-5.24556907-36.7200768 2.6233312L223.17369067 802.4001919899999l0-125.898032c0-10.34915947 3.24366827-22.427184-0.6443648-31.71477973-0.05351467-0.12778133-0.33419627-0.5253216-0.54498027-0.74593493-0.05460693-0.05679147-0.12232-0.11576747-0.1965856-0.18784854-79.17282027-75.5785728-129.75657813-179.13242347-129.75657813-295.20989333 0-225.56603307 188.8459552-406.54418027 419.6586496-406.54418027S931.3473888 123.07767146000003 931.3473888 348.64370346C931.3473888 574.21082879 742.50143253 755.1878837300001 511.6887392 755.1878837300001zM537.91877013 358.07983146000004c-15.0803296 0-27.30360853 12.22328-27.30360853 27.30360853l0 81.85294187c0 15.07923733 12.22328 27.30360853 27.30360853 27.30360853s27.30360853-12.2243712 27.30360854-27.30360853l0-81.85294187C565.22237867 370.30311039000003 552.9980064 358.07983146000004 537.91877013 358.07983146000004zM737.78118507 358.07983146000004c-15.0803296 0-27.30360853 12.22328-27.30360854 27.30360853l0 81.85294187c0 15.07923733 12.22328 27.30360853 27.30360854 27.30360853s27.30360853-12.2243712 27.30360853-27.30360853l0-81.85294187C765.0847936 370.30311039000003 752.8604224 358.07983146000004 737.78118507 358.07983146000004z"  horiz-adv-x="1025" />

    
    <glyph glyph-name="yuyin" unicode="&#58943;" d="M512 203.73911071999999c-102.2611261 0-184.9537651 82.692639-184.9537651 184.9537651V705.5761184099999c0 102.2611261 82.692639 184.9537651 184.9537651 184.95376511s184.9537651-82.692639 184.9537651-184.95376511V388.69287582c0-102.2611261-82.692639-184.9537651-184.9537651-184.9537651z m0 633.76648518c-72.59277469 0-131.9294775-59.3367028-131.9294775-131.92947749V388.69287582c0-72.59277469 59.3367028-131.9294775 131.9294775-131.92947749s131.9294775 59.3367028 131.9294775 131.92947749V705.5761184099999c0 72.59277469-59.3367028 131.9294775-131.9294775 131.92947749z m343.39538639-448.81272008c0 14.51855494-11.99358886 26.5121438-26.5121438 26.5121438s-26.5121438-11.99358886-26.5121438-26.5121438c0-160.33534586-130.03575294-290.37109879-290.37109879-290.3710988s-290.37109879 130.03575294-290.37109879 290.3710988c0 14.51855494-11.99358886 26.5121438-26.5121438 26.5121438-14.51855494 0-26.5121438-11.99358886-26.5121438-26.5121438 0-180.53507446 140.13561724-328.87683146 316.88324259-342.13290336v-106.67981672H406.58266631c-14.51855494 0-26.5121438-11.99358886-26.51214381-26.51214381s11.99358886-26.5121438 26.51214381-26.5121438h211.4659089c14.51855494 0 26.5121438 11.99358886 26.5121438 26.5121438s-11.99358886 26.5121438-26.5121438 26.51214381h-79.53643141v106.67981672c176.74762535 13.2560719 316.88324259 161.5978289 316.88324259 342.13290336z"  horiz-adv-x="1024" />

    
    <glyph glyph-name="yuyin1" unicode="&#59312;" d="M805.72281205 512.29151938v0.01729655c-22.53943355 0-40.80458551-18.42997786-40.80458551-41.14135943v-65.08079572c0-107.40340745-70.07542757-205.7597042-173.75092075-230.56905498-148.35653976-35.49556352-287.17861322 81.27544944-287.17861323 223.11627881v72.53357189c0 22.71036412-19.08826402 41.14034198-41.62769758 41.14034198-22.52722423 0-40.81475995-18.42997786-40.81475995-41.14034198v-72.53357189c0-147.28720628 103.47098697-270.79674983 242.23811847-303.68867454 16.96180639-4.03009508 28.3459856-20.19117316 28.3459856-37.74207953v-36.31257092c0-19.51966021-14.13738227-36.06431462-33.29483247-38.87042476-20.4241678-2.99942446-45.73003118-6.81890866-62.30215657-9.63112346-31.74119572-5.38227796-41.58191261-28.81909699-41.5819126-43.71854469 0-15.09072715 11.69348214-42.63598443 42.61156578-42.63598443h273.7361451c30.92724064 0 42.62275766 27.54627473 42.62275767 42.63598443 0 14.90148259-9.82850757 38.33524929-41.58191261 43.71854469-16.56093351 2.8122148-41.87798877 6.63068156-62.28994725 9.63112346-19.16762465 2.80611013-33.29483247 19.35076454-33.29483246 38.87042476v35.22187111c0 17.68520896 11.57749354 33.92056044 28.68886417 37.81940526 138.25230491 31.40340435 241.90744922 155.96193252 241.90744922 304.68373463v72.55086844c-0.00101744 22.70934668-19.10250824 41.12406288-41.62769759 41.12406288zM535.93740141 238.28371676999996c96.16879248-0.04069775 174.14263663 75.65712451 174.14263663 169.02591152v307.70350796c0 93.32808926-81.41178691 168.98521377-177.51444555 169.02591153-96.16879248 0.04069775-174.15179363-75.6591594-174.15179362-169.02591153v-307.70350796c0-93.32707182 81.41178691-168.98623121 177.52360254-169.02591152z"  horiz-adv-x="1024" />

    
    <glyph glyph-name="yuyin2" unicode="&#58912;" d="M264.01792 587.62752c-19.40992 15.6672-49.408 14.35648-67.01056-2.95936-17.58208-17.29536-16.09728-44.032 3.31264-59.74016 44.44672-35.92192 69.94944-87.33184 69.94944-141.04064 0-53.65248-25.56416-105.088-70.19008-141.1328-10.33728-8.35584-15.56992-19.82464-15.56992-31.34464 0-10.13248 4.0448-20.30592 12.30336-28.40064 17.60256-17.29536 47.60064-18.6112 67.01056-2.91328 64.37888 52.06528 101.30944 126.34112 101.30944 203.79648 0.00512 77.54752-36.84352 151.80288-101.11488 203.73504zM443.85792 726.9888c-18.47808 16.55808-48.512 16.64-67.09248 0.16384-18.57536-16.4352-18.62144-43.24864-0.18944-59.81184 84.38784-75.66336 130.88256-176.3072 130.88256-283.45344 0-106.96192-46.56128-207.58528-131.10784-283.37664-9.20064-8.23808-13.80352-19.04128-13.80352-29.80864 0-10.86464 4.65408-21.72928 13.9776-29.98272 18.58048-16.48128 48.59904-16.39936 67.09248 0.16384 102.3488 91.7248 158.72 213.55008 158.72 343.00416 0.00512 129.64864-56.30464 251.50976-158.47936 343.10144zM622.1312 866.97472c-18.1248 16.84992-48.15872 17.408-67.072 1.23392-18.92864-16.1792-19.51744-42.94656-1.39264-59.79648 123.15648-114.46272 190.98112-265.23136 190.98112-424.50944 0-158.976-67.92192-309.67808-191.22176-424.3712-8.80128-8.192-13.184-18.71872-13.184-29.2608 0-11.10528 4.87936-22.22592 14.61248-30.54592 18.8928-16.14336 48.9472-15.58528 67.072 1.28 140.30336 130.51392 217.56928 301.99808 217.56928 482.87744 0.0256 181.23776-77.18912 352.7936-217.36448 483.09248z"  horiz-adv-x="1024" />

    
    <glyph glyph-name="sousuo-sousuo" unicode="&#58913;" d="M713.15567549 677.08760231c-136.46929922 136.5319224-357.7795699 136.5319224-494.31261057 0s-136.53304066-357.84331134 0-494.31261059c63.2471617-63.26505404 150.63108103-102.39670525 247.15686442-102.39670525 96.52466511 0 183.90858445 39.13276948 247.15574615 102.39670525 63.26617231 63.2471617 102.39782351 150.6321993 102.39782351 247.15686442 0 96.52466511-39.13276948 183.90858445-102.39670525 247.15574617zM142.74697136 106.67777989000001c-82.76322426 82.7419771-133.95430812 197.06168597-133.95430812 323.33682829 0 252.50779035 204.69947575 457.2072661 457.2072661 457.20726611 252.50890862 0 457.2072661-204.69947575 457.20726611-457.20726611 0-126.27514233-51.19220214-240.59485118-133.95430814-323.33571002-82.73526747-82.71402035-197.02030994-133.87155608-323.25295797-133.87155608-126.2337663 0-240.51769049 51.15753574-323.25295798 133.87155608zM996.78941617-100.85874895999996c-11.29341713-11.31130946-26.90335967-18.30833006-44.14933244-18.30833005s-32.8559153 6.99702059-44.14821417 18.30721178l-88.23492344 88.2975466c-11.29118059 11.29118059-18.27478194 26.88882215-18.27478192 44.11802086 0 34.45839741 27.93440537 62.39056626 62.39056623 62.39056624 17.22808044 0 32.82684026-6.98360134 44.11802086-18.27366366l88.29642834-88.23492344c11.34150277-11.27999789 18.35977051-26.8944135 18.35977052-44.14821416s-7.01938602-32.86933455-18.35753398-44.14597762z"  horiz-adv-x="1024" />

    
    <glyph glyph-name="sheweisimi" unicode="&#59095;" d="M482.1333338 242.94400010000004a89.59999965 89.59999965 0 1 0 59.7333324 0V58.66666700999997h-59.7333324v184.27733309zM273.0666662 596.266667v44.7999993C273.0666662 781.20106701 379.9893338 894.93333321 512 894.93333321s238.9333338-113.6725338 238.9333338-253.86666691V596.266667h59.37493275C876.55253345 596.266667 930.1333331 542.50666701 930.1333331 476.26240011v-476.79146656A120.0042669 120.0042669 0 0 0 810.30826655-120.53333334000001H213.69173345C147.44746655-120.53333334000001 93.8666669-66.77333335000003 93.8666669-0.5290664499999593V476.20266666C93.8666669 542.38720011 147.5072 596.266667 213.69173345 596.266667H273.0666662zM153.60000035 477.09866631v-478.464c0-32.256 26.82026655-59.4346662 59.8527993-59.4346662h597.0944007c32.61439965 0 59.85280035 26.6410662 59.8527993 59.4346662v478.464c0 32.256-26.82026655 59.4346662-59.8527993 59.43466724H213.45279965C180.8384 536.53333355 153.60000035 509.89226631 153.60000035 477.09866631z m537.6 163.84853415c0 110.92480035-80.2218669 200.46506655-179.20000035 200.46506654-98.73919965 0-179.20000035-89.7792-179.20000035-200.46506654V596.266667h358.4000007v44.68053346z"  horiz-adv-x="1024" />

    
    <glyph glyph-name="kefu" unicode="&#58882;" d="M1024 400.96c0 144.264-84.76 237.04-227.336 247.48C777.288 783.64 653.384 888 512.864 888c-142.32 0-266.408-107.088-284.44-244.864C90.68 632.024 0 536.096 0 397.4c0-142.984 108.024-246.776 256.112-246.776 17.328 0 31.888 14.016 31.888 31.344v10.44 416.32C288 728.16 393.12 825.312 512.552 825.312c119.448 0 215.64-97.16 215.64-216.64L728 200.768v-16.888c0-11.576 8.392-21.544 19.264-27l-72.536-172.216c-5.968 1.528-12.336 1.872-18.584-0.424l-112.464-41.816a31.376 31.376 0 0 1-18.48-40.312 31.376 31.376 0 0 1 40.304-18.456l112.432 41.816c13.768 5.112 21.2 18.936 19.608 32.936l81.848 194.768C922.808 159.904 1024 259.72 1024 400.96zM224 215.344C136 227.952 62.448 299.296 62.448 397.4 62.448 517.576 136 569.184 224 579.56v-364.216z m568 369.728c64-7.256 163.336-41.904 163.336-184.112 0-114.424-67.336-172.488-163.336-183.72V585.072z"  horiz-adv-x="1024" />

    
    <glyph glyph-name="huangguan" unicode="&#58883;" d="M1012.88 464.08a31.696 31.696 0 0 1-32.248 5.208L712.368 361 570.6 606.736c53.904 20.64 92.352 72.768 92.352 133.832 0 79.064-64.352 143.384-143.432 143.384-79.064 0-143.4-64.32-143.4-143.384 0-63.656 41.728-117.688 99.232-136.36L334.648 360.384 42.616 469.568a31.44 31.44 0 0 1-31.784-5.76 31.544 31.544 0 0 1-10.064-30.704l114.856-512.44A31.52 31.52 0 0 1 146.416-104h731.168a31.56 31.56 0 0 1 30.8 24.664l114.848 512.44a31.592 31.592 0 0 1-10.352 30.976zM439.256 740.568c0 44.248 36 80.256 80.272 80.256 44.28 0 80.296-36 80.296-80.256 0-44.264-36.016-80.272-80.296-80.272-44.272 0-80.272 36.008-80.272 80.272zM852.312-40H171.688L75.12 390.44l262.464-98.336a31.496 31.496 0 0 1 38.392 13.672l147.752 255.944 147.68-256.032a31.704 31.704 0 0 1 39.152-13.504l237.936 96.472L852.312-40z"  horiz-adv-x="1024" />

    
    <glyph glyph-name="guoji" unicode="&#58884;" d="M512 894.728c-282.328 0-512-229.04-512-511.336S229.648-128 511.952-128H512c282.296 0 511.968 229.064 511.968 511.392C1023.968 665.688 794.296 894.728 512 894.728zM960.688 416H717.752c-3.736 160-35.896 314.496-93.912 404.784C808.424 773.336 947.328 600 960.688 416z m-448.72-479.472s0 2.008-0.016 2.008C453.864-61.432 373.944 80 367.96 360h288.056c-5.984-280-85.92-423.472-144.048-423.472zM367.944 416c5.984 248 85.92 419.4 144.024 419.4C570.096 835.4 650.048 664 656.032 416H367.944z m32.176 404.776C342.12 730.48 309.96 576 306.208 416H63.288C76.656 600 215.52 773.304 400.12 820.776zM63.288 360h242.92c3.752-160 35.912-314.488 93.896-404.776C215.536 2.688 76.664 144 63.288 360z m560.568-404.776C681.856 45.512 714.016 200 717.752 360h242.936c-13.392-216-152.264-357.336-336.832-404.776z"  horiz-adv-x="1024" />

    
    <glyph glyph-name="biaoqian" unicode="&#58887;" d="M243.672314-127.9988a30.735964 30.735964 0 0 0-30.703964 30.695964V780.864135c0 63.479926 51.663939 115.127865 115.143865 115.127865h383.383551c63.479926 0 115.111865-51.647939 115.111865-115.127865v-878.166971a30.743964 30.743964 0 0 0-15.255982-26.527969 30.655964 30.655964 0 0 0-30.583964-0.176l-260.983694 147.999827-260.959694-147.999827a30.679964 30.679964 0 0 0-15.151983-3.991995z m276.103677 217.991745c5.207994 0 10.431988-1.319998 15.143982-3.991996l230.27973-130.575847V780.864135a53.759937 53.759937 0 0 1-53.703937 53.719937H328.112215c-29.623965 0-53.735937-24.095972-53.735937-53.719937v-825.447033l230.247731 130.575847a30.583964 30.583964 0 0 0 15.151982 3.999996z"  horiz-adv-x="1024" />

    
    <glyph glyph-name="xiaoxi" unicode="&#58889;" d="M920.408 896H115.408C57.84 896 0 829.04 0 771.512v-613C0 100.984 57.84 64 115.408 64h225.84l152.752-175.448c6.064-6.752 14.752-13.104 23.84-13.104s17.752 7.552 23.84 14.336L694.472 64h225.936C977.936 64 1024 100.984 1024 158.512V771.512C1024 829.04 977.936 896 920.408 896zM960 158.512c0-22.216-17.376-30.512-39.592-30.512H680.184c-9.096 0-17.752-8.776-23.84-15.552L517.84-44.576l-138.44 158.24c-6.056 6.784-14.744 14.336-23.84 14.336h-240.16C93.16 128 64 136.296 64 158.512V771.512C64 793.744 93.16 832 115.408 832h805c22.216 0 39.592-38.256 39.592-60.488v-613zM819.784 640h-596c-17.688 0-32-14.328-32-32s14.312-32 32-32h596c17.688 0 32 14.328 32 32s-14.312 32-32 32zM527.84 416H223.784c-17.688 0-32-14.328-32-32s14.312-32 32-32H527.84c17.688 0 32 14.328 32 32s-14.312 32-32 32z"  horiz-adv-x="1024" />

    
    <glyph glyph-name="zhangdan" unicode="&#58890;" d="M920.456 800.256H700.44V852.12a31.152 31.152 0 1 1-62.304 0v-51.864H385.888V852.12a31.144 31.144 0 1 1-62.304 0v-51.864H103.544C46.448 800.256 0 753.808 0 696.712v-721.168C0-81.544 46.448-128 103.544-128h816.912c57.104 0 103.544 46.456 103.544 103.544V696.712c0 57.096-46.448 103.544-103.544 103.544z m41.248-824.712a41.288 41.288 0 0 0-41.248-41.248H103.544a41.304 41.304 0 0 0-41.248 41.248V696.712a41.288 41.288 0 0 0 41.248 41.248h220.048v-52.656a31.144 31.144 0 1 1 62.304 0v52.656h252.256v-52.656a31.152 31.152 0 1 1 62.304 0v52.656h220.016a41.288 41.288 0 0 0 41.248-41.248v-721.168zM789.752 479.096H209.616a31.144 31.144 0 1 1 0-62.304h580.136a31.144 31.144 0 1 1 0 62.304zM505.584 280.512H209.616c-17.2 0-31.152-13.92-31.152-31.144s13.944-31.16 31.152-31.16h295.968a31.152 31.152 0 1 1 0 62.304z"  horiz-adv-x="1024" />

    
    <glyph glyph-name="dianpu" unicode="&#58891;" d="M1024 529.312c0 2.92-0.416 5.84-1.264 8.648l-70.184 234.88c-6.84 25.32-27.696 102.368-109.208 102.368H177.672c-53.96 0-93.848-37.648-109.064-101.936L1.168 537.64c-0.768-2.72-1.168-5.52-1.168-8.328 0-70.712 38.768-132.424 96.096-165.408v-378.216c0-51.232 41.672-92.888 92.888-92.888h646.024c51.224 0 92.888 41.656 92.888 92.888V363.904C985.232 396.856 1024 458.6 1024 529.312z m-156.568-543.624a32.48 32.48 0 0 0-32.424-32.424H188.984a32.456 32.456 0 0 0-32.416 32.424v356.08c11.136-2.048 22.56-3.248 34.264-3.248 64.912 0 125.648 33.392 160.592 87.688A191.232 191.232 0 0 1 512 338.52c64.96 0 125.784 33.816 160.592 87.752 34.816-53.944 95.6-87.752 160.592-87.752 11.688 0 23.12 1.2 34.248 3.248v-356.08z m-34.256 413.296c-50.464 0-95.464 28.232-117.432 73.696-13.144 27.168-30.704 32.864-43.136 32.864s-30.032-5.696-43.192-32.92c-22.032-45.408-67.024-73.64-117.432-73.64a130.72 130.72 0 0 0-113.672 66.496c-14.944 26.576-33.512 32.152-46.464 32.152-13.096 0-32.096-5.816-48.16-33.568a130.904 130.904 0 0 0-112.872-65.08c-70.536 0-128.16 56.312-130.296 126.32l66.56 232.672c8.936 37.664 25.96 56.768 50.576 56.768h665.664c18.568 0 36.432-4.416 51.048-58.432l69.096-231.184c-2.24-69.96-59.808-126.144-130.288-126.144z"  horiz-adv-x="1024" />

    
    <glyph glyph-name="fenxiang" unicode="&#58892;" d="M847.256 203.44c-52.808 0-99.64-25.544-129.192-64.808L330.392 333.552A161.184 161.184 0 0 1 338.552 384a161.2 161.2 0 0 1-4.632 37.776L728.4 616.96c29.592-32.12 71.848-52.392 118.864-52.392 89.216 0 161.808 72.584 161.808 161.808 0 89.24-72.584 161.84-161.808 161.84-89.224 0-161.816-72.6-161.816-161.84 0-20.48 3.976-40.008 10.952-58.056L309.16 476.72c-29.296 41.712-77.68 69.096-132.416 69.096C87.512 545.808 14.936 473.224 14.936 384s72.576-161.808 161.808-161.808c50.032 0 94.816 22.832 124.512 58.608l390.168-196.176a161.2 161.2 0 0 1-5.984-43.024c0-89.224 72.584-161.816 161.816-161.816 89.216 0 161.808 72.584 161.808 161.816 0 89.224-72.584 161.84-161.808 161.84z m0 624.56c56.032 0 101.6-45.592 101.6-101.632 0-56.032-45.568-101.6-101.6-101.6s-101.6 45.568-101.6 101.6c0 56.04 45.568 101.632 101.6 101.632zM176.744 282.4c-56.032 0-101.6 45.568-101.6 101.6s45.568 101.6 101.6 101.6c56 0 101.6-45.568 101.6-101.6s-45.6-101.6-101.6-101.6z m670.512-342.4c-56.032 0-101.6 45.56-101.6 101.6 0 56.032 45.568 101.624 101.6 101.624s101.6-45.592 101.6-101.624c0-56.04-45.568-101.6-101.6-101.6z"  horiz-adv-x="1024" />

    
    <glyph glyph-name="liebiao" unicode="&#58893;" d="M987.18771914 740.96144298H305.83201099a35.34764637 35.34764637 0 0 0 0 70.69529274h681.35570815a35.3382529 35.3382529 0 0 0 35.34764639-35.34764638 35.3382529 35.3382529 0 0 0-35.34764639-35.34764636zM987.18771914 347.34666059999995H305.83201099c-19.51964102 0-35.34764637 15.80921841-35.34764636 35.34764638s15.82800535 35.34764637 35.34764636 35.34764637h681.35570815c19.53842797 0 35.34764637-15.80921841 35.34764639-35.34764637s-15.80921841-35.34764637-35.34764639-35.34764638zM987.18771914-46.286908710000034H305.83201099a35.34764637 35.34764637 0 1 0 0 70.70468621h681.35570815c19.53842797 0 35.34764637-15.80921841 35.34764639-35.34764637s-15.80921841-35.35703986-35.34764639-35.35703984zM164.16901471 740.96144298H43.90435446a35.34764637 35.34764637 0 0 0 0 70.69529274h120.26466025a35.34764637 35.34764637 0 0 0 0-70.69529274zM164.16901471 347.34666059999995H43.90435446c-19.51964102 0-35.34764637 15.80921841-35.34764638 35.34764638s15.82800535 35.34764637 35.34764638 35.34764637h120.26466025c19.51964102 0 35.34764637-15.80921841 35.34764638-35.34764637s-15.82800535-35.34764637-35.34764638-35.34764638zM164.16901471-46.286908710000034H43.90435446a35.34764637 35.34764637 0 1 0 0 70.70468621h120.26466025a35.34764637 35.34764637 0 1 0 0-70.70468621z"  horiz-adv-x="1024" />

    
    <glyph glyph-name="gouwuche" unicode="&#58894;" d="M789.488 171.8H359.632c-94.584 0-117.384 60.072-134.056 126.992L100.408 829.24H61.96a33.376 33.376 0 0 0 0 66.76h64.864a33.384 33.384 0 0 0 32.488-25.72l131.136-555.744c17.456-70.056 31.208-75.984 69.184-75.984h429.848c12.752 0 51.48 0 69.168 75.88l63.304 252.2c10.008 39.864 8.672 70.768-3.784 87.048-9.424 12.304-27.312 18.792-53.224 19.248H344.64a33.368 33.368 0 0 0-33.376 33.384 33.36 33.36 0 0 0 33.376 33.376h520.936c47.88-0.864 83.216-16.152 105.608-45.44 25.824-33.736 31.04-82.144 15.52-143.88l-63.176-251.616c-25.688-110.4-95.024-126.952-134.04-126.952zM295.448-128c-68.864 0-124.88 56.032-124.88 124.88 0 68.84 56.016 124.872 124.88 124.872 68.84 0 124.88-56.032 124.88-124.872 0-68.848-56.032-124.88-124.88-124.88z m0 183c-32.04 0-58.12-26.08-58.12-58.12 0-32.048 26.08-58.128 58.12-58.128s58.12 26.08 58.12 58.128c0 32.04-26.072 58.12-58.12 58.12zM827.104-128c-68.84 0-124.872 56.032-124.872 124.88 0 68.84 56.032 124.872 124.872 124.872 68.848 0 124.88-56.032 124.88-124.872 0-68.848-56.032-124.88-124.88-124.88z m0 183c-32.04 0-58.12-26.08-58.12-58.12 0-32.048 26.08-58.128 58.12-58.128 32.048 0 58.128 26.08 58.128 58.128-0.008 32.04-26.08 58.12-58.128 58.12z"  horiz-adv-x="1024" />

    
    <glyph glyph-name="qianbao" unicode="&#58895;" d="M899.992 895.992h-776C55.624 895.992 0 840.368 0 771.984v-775.968c0-68.368 55.624-124.008 123.992-124.008h776c68.368 0 124.008 55.64 124.008 124.008V771.984C1024 840.368 968.36 895.992 899.992 895.992z m59.336-617.16H774.408c-98.616 0-157.504 39.312-157.504 105.152 0 57.976 47.176 105.16 105.16 105.16h237.272v-210.312z m-59.336-342.144h-776c-32.72 0-59.32 26.616-59.32 59.328V771.984c0 32.72 26.6 59.336 59.32 59.336h776c32.72 0 59.336-26.616 59.336-59.336v-218.168H722.056c-93.632 0-169.832-76.192-169.832-169.832 0-78.344 58.192-169.824 222.176-169.824h184.92v-218.152c0.008-32.704-26.608-59.32-59.328-59.32zM757.608 338.168a45.816 45.816 0 1 1 0 91.64 45.816 45.816 0 1 1 0-91.64z"  horiz-adv-x="1024" />

    
    <glyph glyph-name="dianzan" unicode="&#58896;" d="M575.031508-127.992h-0.032c-96.151249 0-181.438583 6.119952-253.50202 18.223858-22.839822 3.83197-77.351396 20.735838-94.64726 26.207795H113.93111c-40.895681 0-74.167421 33.27174-74.167421 74.18342V399.29988c0 39.71169 31.343755 72.247436 70.591449 74.119421l137.950922 28.16778 56.823556 45.319646L466.080359 854.288326C479.472254 880.66412 503.896063 896 532.919837 896c26.91179 0 55.687565-13.543894 83.303349-39.167694 49.999609-46.455637 36.087718-110.663135 25.903797-157.518769-1.439989-6.775947-2.903977-13.479895-4.167967-20.047844l-30.399763-137.710924h267.861908c59.999531 0 108.80715-47.095632 108.80715-104.96718 0-28.655776-11.951907-54.663573-31.343755-73.623425 19.391849-18.959852 31.343755-44.983649 31.343755-73.655424 0-28.663776-11.983906-54.663573-31.343755-73.623425 19.359849-18.959852 31.343755-44.983649 31.343755-73.663425 0-28.655776-11.951907-54.647573-31.343755-73.607424 19.391849-18.959852 31.343755-44.991649 31.343755-73.671425 0-43.399661-36.575714-94.807259-104.343185-104.583183-6.135952-0.839993-142.12689-18.151858-304.853618-18.151858zM532.919837 833.368489c-3.759971 0-7.70394-0.943993-11.191913-7.799939L357.537207 512.011a31.335755 31.335755 0 0 0-8.207936-9.951922l-67.85547-54.135577a31.375755 31.375755 0 0 0-13.255896-6.207952l-148.006844-30.207764a31.823751 31.823751 0 0 0-6.271951-0.623995c-6.35995 0-11.54391-5.199959-11.54391-11.57591v-408.668807c0-6.35995 5.18396-11.55191 11.54391-11.55191h117.77508c3.215975 0 6.44795-0.495996 9.519925-1.503988 19.063851-6.087952 72.503434-22.535824 90.623292-25.5678 68.687463-11.51991 150.494824-17.367864 243.150101-17.367864 158.534761 0 295.053695 17.367864 296.429684 17.551862 34.095734 4.919962 50.175608 28.319779 50.175608 42.535668 0 23.359818-20.703838 42.351669-46.167639 42.351669a31.303755 31.303755 0 0 0-31.319756 31.319756 31.295756 31.295756 0 0 0 31.319756 31.311755c25.471801 0 46.167639 18.959852 46.167639 42.29567 0 23.359818-20.703838 42.351669-46.167639 42.351669a31.295756 31.295756 0 0 0-31.319756 31.311755 31.303755 31.303755 0 0 0 31.319756 31.319755c25.471801 0 46.167639 18.991852 46.167639 42.30367 0 23.351818-20.703838 42.343669-46.167639 42.343669a31.311755 31.311755 0 1 0 0 62.623511c25.471801 0 46.167639 18.975852 46.167639 42.311669 0 23.351818-20.703838 42.335669-46.167639 42.335669H568.607558a31.255756 31.255756 0 0 0-24.39981 11.703909 31.231756 31.231756 0 0 0-6.175951 26.359794l38.591698 174.934633c1.191991 6.223951 2.751979 13.399895 4.311966 20.639839 10.27192 47.42363 14.887884 77.711393-7.343942 98.383232-21.79983 20.239842-35.687721 22.431825-40.671682 22.431824z"  horiz-adv-x="1024" />

    
    <glyph glyph-name="tongzhi" unicode="&#58897;" d="M216.176-70.864a30.304 30.304 0 0 0-24.624 47.952c7.472 10.56 68.848 103.936-35.72 182.568C58 232.232 0 340.136 0 448.84 0 656.608 239.24 838.864 511.976 838.864c270.648 0 509.904-182.112 512-389.712 2.072-207.776-157.864-351.704-427.808-385.048l-137.112-4.848c-36.32-27.696-168.696-125.032-240.784-130.064a46.128 46.128 0 0 0-2.096-0.056zM511.976 778.272c-258.336 0-451.384-173.928-451.384-329.432 0-89.6 48.84-179.336 130.648-240.016 84.584-63.576 94.32-140.2 80.192-198.992 51.76 25.976 117.376 71.36 158.208 103.224a30.264 30.264 0 0 0 17.592 6.392l144.184 4.968c237.176 29.44 373.752 147.632 371.976 324.128-1.568 155.96-187.336 329.728-451.416 329.728zM309.08 407.464h-12.632a45.44 45.44 0 0 0-45.448 45.448 45.432 45.432 0 0 0 45.448 45.44h12.632a45.44 45.44 0 1 0 0-90.888zM533.128 407.464h-12.624a45.44 45.44 0 0 0-45.448 45.448 45.432 45.432 0 0 0 45.448 45.44h12.624a45.448 45.448 0 0 0 0-90.888zM757.176 407.464h-12.632a45.44 45.44 0 1 0 0 90.888h12.632a45.44 45.44 0 1 0 0-90.888z"  horiz-adv-x="1024" />

    
    <glyph glyph-name="shanchu" unicode="&#58898;" d="M966.128 714.88H840.96c-0.168 0-0.32 0.096-0.488 0.096-0.16 0-0.312-0.096-0.48-0.096H184.064c-0.176 0-0.32 0.096-0.48 0.096-0.16 0-0.304-0.096-0.48-0.096H57.872a32.6 32.6 0 1 1 0-65.208h93.104v-651.928c0-69.32 56.392-125.744 125.712-125.744h470.688c69.32 0 125.712 56.424 125.712 125.744V649.672h93.04a32.6 32.6 0 1 1 0 65.208z m-158.256-717.136c0-33.376-27.136-60.528-60.504-60.528H276.688c-33.352 0-60.496 27.16-60.496 60.528V649.672h591.68v-651.928zM346.488 81.256a32.608 32.608 0 0 1 32.608 32.608V473.112a32.6 32.6 0 0 1-65.216 0v-359.24a32.6 32.6 0 0 1 32.608-32.616zM512 81.256a32.6 32.6 0 0 1 32.608 32.608V473.112a32.6 32.6 0 0 1-65.216 0v-359.24A32.6 32.6 0 0 1 512 81.256zM677.544 81.256a32.584 32.584 0 0 1 32.6 32.608V473.112c0 18.008-14.576 32.6-32.6 32.6s-32.608-14.592-32.608-32.6v-359.24a32.592 32.592 0 0 1 32.608-32.616zM318.848 738.4a32.608 32.608 0 0 1 32.608 32.6c0 23.808 64.048 59.792 160.576 59.792 96.512 0 160.544-35.984 160.544-59.792a32.6 32.6 0 0 1 32.608-32.6 32.592 32.592 0 0 1 32.6 32.6C737.792 842.264 640.736 896 512.032 896 383.312 896 286.24 842.264 286.24 771a32.608 32.608 0 0 1 32.608-32.6z"  horiz-adv-x="1024" />

    
    <glyph glyph-name="shipin" unicode="&#58903;" d="M602.224 10.33333332999996h-480.96C54.392 10.33333332999996 0 64.69333332999997 0 131.59733332999997v515.44c0 66.872 54.392 121.304 121.264 121.304h480.96c66.864 0 121.296-54.424 121.296-121.304v-88.312l253.032 146.104a31.76 31.76 0 0 0 31.632 0A31.632 31.632 0 0 0 1024 677.42933333v-576.232a31.704 31.704 0 0 0-15.816-27.424 31.76 31.76 0 0 0-31.632 0L723.52 219.86933333000002v-88.272c0-66.904-54.424-121.264-121.296-121.264z m-480.96 694.744c-32 0-58.008-26.04-58.008-58.04v-515.44c0-32 26.008-58.008 58.008-58.008h480.96c32 0 58.04 26.008 58.04 58.008V274.66933333c0 11.304 6.024 21.752 15.816 27.432a31.744 31.744 0 0 0 31.624 0l253.04-146.104V622.6453333300001l-253.04-146.104a31.744 31.744 0 0 0-31.624 0 31.632 31.632 0 0 0-15.816 27.4V647.03733333c0 32-26.04 58.04-58.04 58.04h-480.96z"  horiz-adv-x="1024" />

    
    <glyph glyph-name="zhekou" unicode="&#58904;" d="M1004.1476 848.39333333c-10.248 25.3428-39.9168 42.1932-151.4688 42.1932-20.958 0-290.0268-3.9816-297.192-4.8804a32.8608 32.8608 0 0 1-3.7884-0.7056 77.5908 77.5908 0 0 1-37.17-20.5884L29.8736 379.79093333000003c-29.8536-29.9124-30.1224-78.2712-0.588-107.8812l364.1988-364.2324a75.012 75.012 0 0 1 53.3736-21.9744 76.692 76.692 0 0 1 54.5748 22.6548l484.5036 484.5204c14.322 14.2296 30.9624 40.8408 30.744 68.4012 0 0 0.8652 354.2364-12.5328 387.114z m-50.6856-387.0468c0.0336-5.4348-5.1156-16.6992-12.1548-23.7048l-484.5288-484.5624c-7.7196-7.7112-13.1208-6.1656-18.6144-0.672L74.024 316.58093333c-4.9392 4.9728-4.662 13.272 0.588 18.5472l484.5288 484.4616a13.86 13.86 0 0 0 5.7708 3.5532c7.0056 0.7056 267.9264 4.2252 287.7756 4.2252 55.9944 0 84.4872-4.998 94.8612-8.6772 4.8048-16.8504 5.9136-356.79 5.9136-357.3444zM757.7672 773.01173333c-37.4808 0-72.8196-14.6916-99.5232-41.3952-26.3592-26.334-41.0844-61.2444-41.4288-98.2548-0.3696-37.2288 13.8264-72.1308 39.942-98.2128 25.7712-25.7712 60.1608-39.942 96.894-39.942 37.506 0 72.8448 14.7 99.5484 41.3616 26.7372 26.7036 41.4288 62.0424 41.4288 99.5484 0 36.7332-14.196 71.1816-39.9756 96.9276-25.7376 25.7712-60.1608 39.9672-96.8856 39.9672z m50.7444-191.7132c-28.9548-28.9212-78.8676-29.6016-107.0496-1.4532-14.0112 14.0112-21.6384 32.8104-21.4536 52.9032a77.2632 77.2632 0 0 0 22.932 54.1716c14.7504 14.7504 34.23 22.8732 54.8184 22.8732 19.8072 0 38.3292-7.6272 52.164-21.4872 13.8516-13.8264 21.4872-32.3484 21.4872-52.1976 0-20.58-8.1144-40.0596-22.8984-54.81z"  horiz-adv-x="1024" />

    
    <glyph glyph-name="naozhong" unicode="&#58910;" d="M511.9881875 783.538125C262.7208125 783.538125 60.7664375 581.5364999999999 60.7664375 332.316375c0-249.235875 201.96225-451.28475 451.22175-451.28475 249.141375 0 451.19025 202.041 451.19025 451.28475 0 249.220125-202.048875 451.22175-451.19025 451.22175z m0-839.671875c-214.1685 0-388.387125 174.250125-388.387125 388.450125 0 214.1685 174.2265 388.387125 388.387125 388.387125 214.144875 0 388.3635-174.218625 388.3635-388.387125-0.007875-214.2-174.2265-388.450125-388.3635-388.450125zM539.8420625 344.554125V580.678125a31.42125 31.42125 0 0 1-62.82675 0v-249.157125c0-8.3475 3.331125-16.3485 9.24525-22.239L602.4561875 193.50374999999997a31.26375 31.26375 0 0 1 22.176-9.174375 31.4055 31.4055 0 0 1 22.183875 53.66025L539.8420625 344.554125zM98.3459375 618.871875a31.4055 31.4055 0 0 1 0 44.422875c-36.721125 36.736875-36.721125 96.516 0 133.252875A93.555 93.555 0 0 0 164.9526875 824.13375c25.1685 0 48.84075-9.804375 66.630375-27.601875a31.4055 31.4055 0 0 1 44.422875 0 31.4055 31.4055 0 0 1 0 44.43075A156.03525 156.03525 0 0 1 164.9526875 886.968375a155.97225 155.97225 0 0 1-111.029625-45.99c-61.236-61.25175-61.22025-160.88625 0-222.098625a31.318875 31.318875 0 0 1 22.2075-9.205875 31.2795 31.2795 0 0 1 22.215375 9.198zM970.0848125 840.9705c-61.236 61.228125-160.85475 61.212375-222.082875-0.01575a31.4055 31.4055 0 0 1 0-44.43075 31.4055 31.4055 0 0 1 44.422875 0c36.721125 36.71325 96.453 36.752625 133.237125 0.01575 36.729-36.736875 36.729-96.516 0-133.252875a31.4055 31.4055 0 1 1 44.422875-44.422875c61.228125 61.228125 61.228125 160.85475 0 222.1065z"  horiz-adv-x="1024" />

    
    <glyph glyph-name="jiazai4" unicode="&#58955;" d="M511.103 896c27.848 0 50.307-22.558 50.307-50.307v-154.812c0-27.849-22.559-50.307-50.307-50.307-27.848 0-50.307 22.558-50.307 50.307V845.594C460.696 873.442 483.255 896 511.103 896zM776.31 819.941c24.056-13.874 32.34-44.717 18.467-68.772L717.32 617.018c-13.874-24.056-44.717-32.34-68.772-18.466-24.056 13.874-32.34 44.717-18.466 68.772l77.456 134.052c13.974 24.155 44.717 32.44 68.773 18.565zM944 635.583c13.874-24.055 5.69-54.898-18.466-68.772l-134.051-77.456c-24.056-13.875-54.899-5.69-68.773 18.465-13.874 24.056-5.69 54.898 18.466 68.773l134.051 77.456c24.056 13.874 54.799 5.59 68.773-18.466zM1021.456 394.73c0-27.848-22.558-50.307-50.307-50.307H816.337c-27.849 0-50.307 22.559-50.307 50.307 0 27.848 22.558 50.307 50.307 50.307h154.812c27.849 0.1 50.307-22.459 50.307-50.307zM944 134.313c-13.875-24.055-44.717-32.34-68.773-18.465l-134.051 77.456c-24.055 13.874-32.34 44.717-18.466 68.772 13.874 24.056 44.717 32.34 68.773 18.466l134.05-77.456c24.056-13.875 32.34-44.717 18.467-68.773zM776.31-69.708c-24.055-13.874-54.897-5.69-68.772 18.466l-77.456 134.05c-13.874 24.056-5.69 54.899 18.466 68.773 24.055 13.875 54.898 5.69 68.772-18.465l77.457-134.052c13.874-24.055 5.689-54.798-18.466-68.772zM511.103-126.104c-27.848 0-50.307 22.559-50.307 50.307V79.016c0 27.848 22.558 50.307 50.307 50.307 27.848 0 50.307-22.559 50.307-50.307v-154.813c0-27.748-22.559-50.307-50.307-50.307zM245.795-69.708c-24.055 13.874-32.34 44.717-18.466 68.772l77.457 134.052c13.874 24.055 44.717 32.34 68.772 18.465 24.055-13.874 32.34-44.717 18.466-68.772l-77.456-134.051c-13.875-24.056-44.717-32.34-68.773-18.466zM58.044 134.313c-13.875 24.056-5.69 54.898 18.465 68.773l134.052 77.456c24.055 13.874 54.898 5.69 68.772-18.466 13.874-24.055 5.69-54.898-18.466-68.772l-134.051-77.456c-24.055-13.875-54.898-5.59-68.772 18.465zM0.65 394.73c0 27.848 22.558 50.307 50.307 50.307h154.812c27.849 0 50.307-22.558 50.307-50.307 0-27.848-22.558-50.307-50.307-50.307H50.957C23.208 344.423 0.65 366.982 0.65 394.73zM58.044 635.583c13.874 24.056 44.717 32.34 68.772 18.466l134.051-77.456c24.056-13.875 32.34-44.717 18.466-68.773-13.874-24.055-44.717-32.34-68.772-18.465L76.509 566.81c-24.155 13.874-32.34 44.617-18.465 68.772zM245.795 819.941c24.056 13.874 54.898 5.69 68.773-18.466l77.456-134.05c13.874-24.056 5.69-54.899-18.466-68.773-24.055-13.875-54.898-5.69-68.772 18.465L227.329 751.17c-13.874 24.055-5.59 54.798 18.466 68.772z"  horiz-adv-x="1024" />

    
    <glyph glyph-name="tongzhi1" unicode="&#59194;" d="M977.408 58.368c0 3.584-1.024 7.168-2.56 10.24-9.728 75.776-52.736 140.288-113.664 180.224v204.8c0 152.064-97.28 281.088-232.96 328.704C626.176 845.312 574.976 896 512 896 449.024 896 397.824 845.312 395.776 782.848c-135.68-47.616-232.96-176.64-232.96-328.704v-205.312c-60.928-39.936-103.936-104.448-113.664-180.224-1.536-3.072-2.56-6.656-2.56-10.24 0-2.048 0.512-4.608 1.536-6.656-0.512-5.632-1.536-11.264-1.536-16.896h930.304c0 5.632-1.024 11.264-1.024 16.896 1.024 2.048 1.536 4.096 1.536 6.656z m-878.592 23.04c11.776 52.224 44.032 98.304 89.6 128l20.992 13.824v230.4c0 128 81.408 242.176 201.728 285.184l30.208 10.752 1.024 32.256C443.392 819.712 474.112 849.92 512 849.92s68.608-29.696 69.632-68.096l1.024-32.256 30.208-10.752c120.832-42.496 201.728-157.184 201.728-285.184v-230.4l20.992-13.824c45.568-30.208 77.824-75.776 89.6-128H98.816zM512-81.408c-38.4 0-69.632 31.232-69.632 69.632h-46.592c0-64.512 52.224-116.224 116.224-116.224 64.512 0 116.224 52.224 116.224 116.224h-46.592c0-38.4-31.232-69.632-69.632-69.632z"  horiz-adv-x="1024" />

    
    </font>
</defs>
</svg>
